{
.appVersion = "3312";
.formatVersion = 3;
customParameters = (
{
name = glyphOrder;
value = (
.notdef,
pixel,
space,
exclam,
quotedbl,
numbersign,
dollar,
percent,
ampersand,
quotesingle,
parenleft,
parenright,
asterisk,
plus,
comma,
hyphen,
period,
slash,
zero,
one,
two,
three,
four,
five,
six,
seven,
eight,
nine,
colon,
semicolon,
less,
equal,
greater,
question,
at,
A,
B,
C,
D,
E,
F,
G,
H,
I,
J,
K,
L,
M,
N,
O,
P,
Q,
R,
S,
T,
U,
V,
W,
X,
Y,
Z,
bracketleft,
backslash,
bracketright,
asciicircum,
underscore,
grave,
a,
b,
c,
d,
e,
f,
g,
h,
i,
j,
k,
l,
m,
n,
o,
p,
q,
r,
s,
t,
u,
v,
w,
x,
y,
z,
braceleft,
bar,
braceright,
asciitilde,
exclamdown,
cent,
sterling,
yen,
section,
dieresis,
copyright,
ordfeminine,
guillemetleft,
logicalnot,
registered,
degree,
plusminus,
acute,
micro,
paragraph,
ordmasculine,
guillemetright,
questiondown,
Agrave,
Atilde,
Adieresis,
Aring,
AE,
Ccedilla,
Eacute,
Ntilde,
Otilde,
Odieresis,
Oslash,
Udieresis,
germandbls,
agrave,
aacute,
acircumflex,
atilde,
adieresis,
aring,
ae,
ccedilla,
egrave,
eacute,
ecircumflex,
edieresis,
igrave,
iacute,
icircumflex,
idieresis,
ntilde,
ograve,
oacute,
ocircumflex,
otilde,
odieresis,
divide,
oslash,
ugrave,
uacute,
ucircumflex,
udieresis,
ydieresis,
OE,
oe,
florin,
Omega,
pi,
emdash,
quoteleft,
quoteright,
quotedblleft,
quotedblright,
dagger,
bullet,
ellipsis,
trademark,
partialdiff,
increment,
product,
summation,
minus,
radical,
infinity,
integral,
approxequal,
notequal,
lessequal,
greaterequal,
lozenge
);
}
);
date = "2024-07-09 21:06:19 +0000";
familyName = "Mac Geneva";
fontMaster = (
{
id = m01;
metricValues = (
{
pos = 1000;
},
{
pos = 900;
},
{
pos = 500;
},
{
},
{
pos = -200;
},
{
}
);
name = "09";
}
);
glyphs = (
{
glyphname = .notdef;
lastChange = "2024-07-09 21:43:44 +0000";
layers = (
{
layerId = m01;
shapes = (
{
closed = 1;
nodes = (
(600,0,l),
(600,700,l),
(0,700,l),
(0,0,l)
);
},
{
closed = 1;
nodes = (
(100,100,l),
(100,600,l),
(500,600,l),
(500,100,l)
);
}
);
width = 700;
}
);
},
{
export = 0;
glyphname = pixel;
lastChange = "2024-07-09 21:43:44 +0000";
layers = (
{
layerId = m01;
shapes = (
{
closed = 1;
nodes = (
(100,0,l),
(100,100,l),
(0,100,l),
(0,0,l)
);
}
);
width = 200;
}
);
},
{
glyphname = exclam;
lastChange = "2024-07-09 21:57:06 +0000";
layers = (
{
layerId = m01;
shapes = (
{
closed = 1;
nodes = (
(200,0,l),
(200,100,l),
(100,100,l),
(100,0,l)
);
},
{
closed = 1;
nodes = (
(200,200,l),
(200,700,l),
(100,700,l),
(100,200,l)
);
}
);
width = 300;
}
);
unicode = 33;
},
{
glyphname = quotedbl;
lastChange = "2024-07-09 21:46:32 +0000";
layers = (
{
layerId = m01;
shapes = (
{
closed = 1;
nodes = (
(100,500,l),
(200,500,l),
(200,700,l),
(100,700,l)
);
},
{
closed = 1;
nodes = (
(300,500,l),
(400,500,l),
(400,700,l),
(300,700,l)
);
}
);
width = 500;
}
);
unicode = 34;
},
{
glyphname = numbersign;
lastChange = "2024-07-09 21:54:14 +0000";
layers = (
{
layerId = m01;
shapes = (
{
closed = 1;
nodes = (
(200,600,l),
(200,500,l),
(100,500,l),
(100,400,l),
(200,400,l),
(200,300,l),
(300,300,l),
(300,400,l),
(400,400,l),
(400,300,l),
(500,300,l),
(500,400,l),
(600,400,l),
(600,500,l),
(500,500,l),
(500,600,l),
(600,600,l),
(600,700,l),
(500,700,l),
(500,800,l),
(400,800,l),
(400,700,l),
(300,700,l),
(300,800,l),
(200,800,l),
(200,700,l),
(100,700,l),
(100,600,l)
);
},
{
closed = 1;
nodes = (
(400,600,l),
(400,500,l),
(300,500,l),
(300,600,l)
);
}
);
width = 700;
}
);
unicode = 35;
},
{
glyphname = dollar;
lastChange = "2024-07-09 21:43:44 +0000";
layers = (
{
layerId = m01;
shapes = (
{
closed = 1;
nodes = (
(500,500,l),
(500,600,l),
(400,600,l),
(400,500,l)
);
},
{
closed = 1;
nodes = (
(400,600,l),
(400,700,l),
(300,700,l),
(300,800,l),
(200,800,l),
(200,700,l),
(100,700,l),
(100,600,l),
(200,600,l),
(200,400,l),
(100,400,l),
(100,300,l),
(200,300,l),
(200,100,l),
(100,100,l),
(100,0,l),
(200,0,l),
(200,-100,l),
(300,-100,l),
(300,0,l),
(400,0,l),
(400,100,l),
(300,100,l),
(300,300,l),
(400,300,l),
(400,400,l),
(300,400,l),
(300,600,l)
);
},
{
closed = 1;
nodes = (
(0,600,l),
(0,400,l),
(100,400,l),
(100,600,l)
);
},
{
closed = 1;
nodes = (
(500,100,l),
(500,300,l),
(400,300,l),
(400,100,l)
);
},
{
closed = 1;
nodes = (
(100,100,l),
(100,200,l),
(0,200,l),
(0,100,l)
);
}
);
width = 600;
}
);
unicode = 36;
},
{
glyphname = percent;
lastChange = "2024-07-09 21:43:44 +0000";
layers = (
{
layerId = m01;
shapes = (
{
closed = 1;
nodes = (
(0,400,l),
(100,400,l),
(100,600,l),
(0,600,l)
);
},
{
closed = 1;
nodes = (
(300,300,l),
(300,400,l),
(100,400,l),
(100,300,l)
);
},
{
closed = 1;
nodes = (
(400,400,l),
(400,600,l),
(600,600,l),
(600,500,l),
(700,500,l),
(700,600,l),
(800,600,l),
(800,700,l),
(100,700,l),
(100,600,l),
(300,600,l),
(300,400,l)
);
},
{
closed = 1;
nodes = (
(500,500,l),
(500,400,l),
(400,400,l),
(400,300,l),
(300,300,l),
(300,200,l),
(400,200,l),
(400,100,l),
(500,100,l),
(500,300,l),
(700,300,l),
(700,400,l),
(600,400,l),
(600,500,l)
);
},
{
closed = 1;
nodes = (
(200,200,l),
(200,100,l),
(300,100,l),
(300,200,l)
);
},
{
closed = 1;
nodes = (
(100,100,l),
(100,0,l),
(200,0,l),
(200,100,l)
);
},
{
closed = 1;
nodes = (
(700,0,l),
(700,100,l),
(500,100,l),
(500,0,l)
);
},
{
closed = 1;
nodes = (
(800,100,l),
(800,300,l),
(700,300,l),
(700,100,l)
);
}
);
width = 900;
}
);
unicode = 37;
},
{
glyphname = ampersand;
lastChange = "2024-07-09 21:43:44 +0000";
layers = (
{
layerId = m01;
shapes = (
{
closed = 1;
nodes = (
(100,700,l),
(100,500,l),
(200,500,l),
(200,700,l)
);
},
{
closed = 1;
nodes = (
(400,700,l),
(400,800,l),
(200,800,l),
(200,700,l)
);
},
{
closed = 1;
nodes = (
(300,600,l),
(300,500,l),
(400,500,l),
(400,600,l)
);
},
{
closed = 1;
nodes = (
(500,600,l),
(500,700,l),
(400,700,l),
(400,600,l)
);
},
{
closed = 1;
nodes = (
(200,500,l),
(200,400,l),
(300,400,l),
(300,500,l)
);
},
{
closed = 1;
nodes = (
(100,400,l),
(100,300,l),
(200,300,l),
(200,400,l)
);
},
{
closed = 1;
nodes = (
(0,300,l),
(0,100,l),
(100,100,l),
(100,300,l)
);
},
{
closed = 1;
nodes = (
(300,0,l),
(300,100,l),
(100,100,l),
(100,0,l)
);
},
{
closed = 1;
nodes = (
(400,100,l),
(400,200,l),
(300,200,l),
(300,100,l)
);
},
{
closed = 1;
nodes = (
(500,200,l),
(500,300,l),
(400,300,l),
(400,200,l)
);
},
{
closed = 1;
nodes = (
(400,300,l),
(400,400,l),
(300,400,l),
(300,300,l)
);
},
{
closed = 1;
nodes = (
(600,300,l),
(600,400,l),
(500,400,l),
(500,300,l)
);
},
{
closed = 1;
nodes = (
(600,100,l),
(600,200,l),
(500,200,l),
(500,100,l)
);
},
{
closed = 1;
nodes = (
(700,0,l),
(700,100,l),
(600,100,l),
(600,0,l)
);
}
);
width = 800;
}
);
unicode = 38;
},
{
glyphname = quotesingle;
lastChange = "2024-07-09 21:46:38 +0000";
layers = (
{
layerId = m01;
shapes = (
{
closed = 1;
nodes = (
(100,500,l),
(200,500,l),
(200,700,l),
(100,700,l)
);
}
);
width = 300;
}
);
unicode = 39;
},
{
glyphname = parenleft;
lastChange = "2024-07-09 21:43:44 +0000";
layers = (
{
layerId = m01;
shapes = (
{
closed = 1;
nodes = (
(100,700,l),
(100,600,l),
(200,600,l),
(200,700,l)
);
},
{
closed = 1;
nodes = (
(300,700,l),
(300,800,l),
(200,800,l),
(200,700,l)
);
},
{
closed = 1;
nodes = (
(0,600,l),
(0,100,l),
(100,100,l),
(100,600,l)
);
},
{
closed = 1;
nodes = (
(200,0,l),
(200,100,l),
(100,100,l),
(100,0,l)
);
},
{
closed = 1;
nodes = (
(300,-100,l),
(300,0,l),
(200,0,l),
(200,-100,l)
);
}
);
width = 400;
}
);
unicode = 40;
},
{
glyphname = parenright;
lastChange = "2024-07-09 21:43:44 +0000";
layers = (
{
layerId = m01;
shapes = (
{
closed = 1;
nodes = (
(100,-100,l),
(100,0,l),
(0,0,l),
(0,-100,l)
);
},
{
closed = 1;
nodes = (
(200,0,l),
(200,100,l),
(100,100,l),
(100,0,l)
);
},
{
closed = 1;
nodes = (
(300,100,l),
(300,600,l),
(200,600,l),
(200,100,l)
);
},
{
closed = 1;
nodes = (
(100,700,l),
(100,800,l),
(0,800,l),
(0,700,l)
);
},
{
closed = 1;
nodes = (
(200,600,l),
(200,700,l),
(100,700,l),
(100,600,l)
);
}
);
width = 400;
}
);
unicode = 41;
},
{
glyphname = asterisk;
lastChange = "2024-07-09 21:46:48 +0000";
layers = (
{
layerId = m01;
shapes = (
{
closed = 1;
nodes = (
(300,600,l),
(300,700,l),
(200,700,l),
(200,600,l)
);
},
{
closed = 1;
nodes = (
(300,600,l),
(300,500,l),
(100,500,l),
(100,400,l),
(300,400,l),
(300,300,l),
(400,300,l),
(400,400,l),
(600,400,l),
(600,500,l),
(400,500,l),
(400,600,l)
);
},
{
closed = 1;
nodes = (
(500,600,l),
(500,700,l),
(400,700,l),
(400,600,l)
);
},
{
closed = 1;
nodes = (
(200,300,l),
(200,200,l),
(300,200,l),
(300,300,l)
);
},
{
closed = 1;
nodes = (
(500,200,l),
(500,300,l),
(400,300,l),
(400,200,l)
);
}
);
width = 700;
}
);
unicode = 42;
},
{
glyphname = plus;
lastChange = "2024-07-09 21:43:44 +0000";
layers = (
{
layerId = m01;
shapes = (
{
closed = 1;
nodes = (
(200,300,l),
(200,100,l),
(300,100,l),
(300,300,l),
(500,300,l),
(500,400,l),
(300,400,l),
(300,600,l),
(200,600,l),
(200,400,l),
(0,400,l),
(0,300,l)
);
}
);
width = 600;
}
);
unicode = 43;
},
{
glyphname = comma;
lastChange = "2024-07-09 21:46:54 +0000";
layers = (
{
layerId = m01;
shapes = (
{
closed = 1;
nodes = (
(200,-100,l),
(300,-100,l),
(300,100,l),
(200,100,l)
);
},
{
closed = 1;
nodes = (
(100,-100,l),
(100,-200,l),
(200,-200,l),
(200,-100,l)
);
}
);
width = 400;
}
);
unicode = 44;
},
{
glyphname = hyphen;
lastChange = "2024-07-09 21:43:44 +0000";
layers = (
{
layerId = m01;
shapes = (
{
closed = 1;
nodes = (
(400,200,l),
(400,300,l),
(0,300,l),
(0,200,l)
);
}
);
width = 500;
}
);
unicode = 45;
},
{
glyphname = period;
lastChange = "2024-07-09 21:46:57 +0000";
layers = (
{
layerId = m01;
shapes = (
{
closed = 1;
nodes = (
(200,0,l),
(200,100,l),
(100,100,l),
(100,0,l)
);
}
);
width = 300;
}
);
unicode = 46;
},
{
glyphname = slash;
lastChange = "2024-07-09 21:46:59 +0000";
layers = (
{
layerId = m01;
shapes = (
{
closed = 1;
nodes = (
(200,0,l),
(200,200,l),
(100,200,l),
(100,0,l)
);
},
{
closed = 1;
nodes = (
(300,200,l),
(300,400,l),
(200,400,l),
(200,200,l)
);
},
{
closed = 1;
nodes = (
(400,400,l),
(400,600,l),
(300,600,l),
(300,400,l)
);
},
{
closed = 1;
nodes = (
(500,600,l),
(500,800,l),
(400,800,l),
(400,600,l)
);
}
);
width = 600;
}
);
unicode = 47;
},
{
glyphname = zero;
lastChange = "2024-07-09 21:43:44 +0000";
layers = (
{
layerId = m01;
shapes = (
{
closed = 1;
nodes = (
(100,100,l),
(100,600,l),
(0,600,l),
(0,100,l)
);
},
{
closed = 1;
nodes = (
(400,600,l),
(400,700,l),
(100,700,l),
(100,600,l)
);
},
{
closed = 1;
nodes = (
(400,100,l),
(500,100,l),
(500,600,l),
(400,600,l)
);
},
{
closed = 1;
nodes = (
(100,100,l),
(100,0,l),
(400,0,l),
(400,100,l)
);
}
);
width = 600;
}
);
unicode = 48;
},
{
glyphname = one;
lastChange = "2024-07-09 21:47:20 +0000";
layers = (
{
layerId = m01;
shapes = (
{
closed = 1;
nodes = (
(300,0,l),
(300,700,l),
(200,700,l),
(200,600,l),
(100,600,l),
(100,500,l),
(200,500,l),
(200,0,l)
);
}
);
width = 600;
}
);
unicode = 49;
},
{
glyphname = two;
lastChange = "2024-07-09 21:43:44 +0000";
layers = (
{
layerId = m01;
shapes = (
{
closed = 1;
nodes = (
(100,500,l),
(100,600,l),
(0,600,l),
(0,500,l)
);
},
{
closed = 1;
nodes = (
(400,600,l),
(400,700,l),
(100,700,l),
(100,600,l)
);
},
{
closed = 1;
nodes = (
(400,400,l),
(500,400,l),
(500,600,l),
(400,600,l)
);
},
{
closed = 1;
nodes = (
(300,400,l),
(300,300,l),
(400,300,l),
(400,400,l)
);
},
{
closed = 1;
nodes = (
(200,300,l),
(200,200,l),
(300,200,l),
(300,300,l)
);
},
{
closed = 1;
nodes = (
(100,200,l),
(100,100,l),
(0,100,l),
(0,0,l),
(500,0,l),
(500,100,l),
(200,100,l),
(200,200,l)
);
}
);
width = 600;
}
);
unicode = 50;
},
{
glyphname = three;
lastChange = "2024-07-09 21:43:44 +0000";
layers = (
{
layerId = m01;
shapes = (
{
closed = 1;
nodes = (
(300,600,l),
(300,500,l),
(400,500,l),
(400,600,l),
(500,600,l),
(500,700,l),
(0,700,l),
(0,600,l)
);
},
{
closed = 1;
nodes = (
(200,500,l),
(200,400,l),
(100,400,l),
(100,300,l),
(400,300,l),
(400,400,l),
(300,400,l),
(300,500,l)
);
},
{
closed = 1;
nodes = (
(400,100,l),
(500,100,l),
(500,300,l),
(400,300,l)
);
},
{
closed = 1;
nodes = (
(100,100,l),
(100,0,l),
(400,0,l),
(400,100,l)
);
},
{
closed = 1;
nodes = (
(100,100,l),
(100,200,l),
(0,200,l),
(0,100,l)
);
}
);
width = 600;
}
);
unicode = 51;
},
{
glyphname = four;
lastChange = "2024-07-09 21:43:44 +0000";
layers = (
{
layerId = m01;
shapes = (
{
closed = 1;
nodes = (
(400,0,l),
(400,200,l),
(500,200,l),
(500,300,l),
(400,300,l),
(400,700,l),
(300,700,l),
(300,600,l),
(200,600,l),
(200,500,l),
(300,500,l),
(300,300,l),
(100,300,l),
(100,400,l),
(0,400,l),
(0,200,l),
(300,200,l),
(300,0,l)
);
},
{
closed = 1;
nodes = (
(100,500,l),
(100,400,l),
(200,400,l),
(200,500,l)
);
}
);
width = 600;
}
);
unicode = 52;
},
{
glyphname = five;
lastChange = "2024-07-09 21:43:44 +0000";
layers = (
{
layerId = m01;
shapes = (
{
closed = 1;
nodes = (
(500,600,l),
(500,700,l),
(0,700,l),
(0,400,l),
(400,400,l),
(400,500,l),
(100,500,l),
(100,600,l)
);
},
{
closed = 1;
nodes = (
(400,100,l),
(500,100,l),
(500,400,l),
(400,400,l)
);
},
{
closed = 1;
nodes = (
(100,100,l),
(100,0,l),
(400,0,l),
(400,100,l)
);
},
{
closed = 1;
nodes = (
(100,100,l),
(100,200,l),
(0,200,l),
(0,100,l)
);
}
);
width = 600;
}
);
unicode = 53;
},
{
glyphname = six;
lastChange = "2024-07-09 21:43:44 +0000";
layers = (
{
layerId = m01;
shapes = (
{
closed = 1;
nodes = (
(400,600,l),
(400,700,l),
(200,700,l),
(200,600,l)
);
},
{
closed = 1;
nodes = (
(100,600,l),
(100,500,l),
(200,500,l),
(200,600,l)
);
},
{
closed = 1;
nodes = (
(0,500,l),
(0,100,l),
(100,100,l),
(100,300,l),
(400,300,l),
(400,400,l),
(100,400,l),
(100,500,l)
);
},
{
closed = 1;
nodes = (
(400,0,l),
(400,100,l),
(100,100,l),
(100,0,l)
);
},
{
closed = 1;
nodes = (
(500,100,l),
(500,300,l),
(400,300,l),
(400,100,l)
);
}
);
width = 600;
}
);
unicode = 54;
},
{
glyphname = seven;
lastChange = "2024-07-09 21:43:44 +0000";
layers = (
{
layerId = m01;
shapes = (
{
closed = 1;
nodes = (
(400,600,l),
(400,500,l),
(500,500,l),
(500,700,l),
(0,700,l),
(0,600,l)
);
},
{
closed = 1;
nodes = (
(300,500,l),
(300,300,l),
(400,300,l),
(400,500,l)
);
},
{
closed = 1;
nodes = (
(200,300,l),
(200,0,l),
(300,0,l),
(300,300,l)
);
}
);
width = 600;
}
);
unicode = 55;
},
{
glyphname = eight;
lastChange = "2024-07-09 21:43:44 +0000";
layers = (
{
layerId = m01;
shapes = (
{
closed = 1;
nodes = (
(0,600,l),
(0,400,l),
(100,400,l),
(100,600,l)
);
},
{
closed = 1;
nodes = (
(400,600,l),
(400,700,l),
(100,700,l),
(100,600,l)
);
},
{
closed = 1;
nodes = (
(400,400,l),
(500,400,l),
(500,600,l),
(400,600,l)
);
},
{
closed = 1;
nodes = (
(100,400,l),
(100,300,l),
(400,300,l),
(400,400,l)
);
},
{
closed = 1;
nodes = (
(0,300,l),
(0,100,l),
(100,100,l),
(100,300,l)
);
},
{
closed = 1;
nodes = (
(400,0,l),
(400,100,l),
(100,100,l),
(100,0,l)
);
},
{
closed = 1;
nodes = (
(400,100,l),
(500,100,l),
(500,300,l),
(400,300,l)
);
}
);
width = 600;
}
);
unicode = 56;
},
{
glyphname = nine;
lastChange = "2024-07-09 21:43:44 +0000";
layers = (
{
layerId = m01;
shapes = (
{
closed = 1;
nodes = (
(300,0,l),
(300,100,l),
(100,100,l),
(100,0,l)
);
},
{
closed = 1;
nodes = (
(400,100,l),
(400,200,l),
(300,200,l),
(300,100,l)
);
},
{
closed = 1;
nodes = (
(500,200,l),
(500,600,l),
(400,600,l),
(400,400,l),
(100,400,l),
(100,300,l),
(400,300,l),
(400,200,l)
);
},
{
closed = 1;
nodes = (
(400,600,l),
(400,700,l),
(100,700,l),
(100,600,l)
);
},
{
closed = 1;
nodes = (
(0,600,l),
(0,400,l),
(100,400,l),
(100,600,l)
);
}
);
width = 600;
}
);
unicode = 57;
},
{
glyphname = colon;
lastChange = "2024-07-09 21:47:40 +0000";
layers = (
{
layerId = m01;
shapes = (
{
closed = 1;
nodes = (
(300,0,l),
(300,100,l),
(200,100,l),
(200,0,l)
);
},
{
closed = 1;
nodes = (
(300,400,l),
(300,500,l),
(200,500,l),
(200,400,l)
);
}
);
width = 400;
}
);
unicode = 58;
},
{
glyphname = semicolon;
lastChange = "2024-07-09 21:47:43 +0000";
layers = (
{
layerId = m01;
shapes = (
{
closed = 1;
nodes = (
(300,400,l),
(300,500,l),
(200,500,l),
(200,400,l)
);
},
{
closed = 1;
nodes = (
(200,-100,l),
(300,-100,l),
(300,100,l),
(200,100,l)
);
},
{
closed = 1;
nodes = (
(100,-100,l),
(100,-200,l),
(200,-200,l),
(200,-100,l)
);
}
);
width = 400;
}
);
unicode = 59;
},
{
glyphname = less;
lastChange = "2024-07-09 21:47:50 +0000";
layers = (
{
layerId = m01;
shapes = (
{
closed = 1;
nodes = (
(200,300,l),
(200,400,l),
(100,400,l),
(100,300,l)
);
},
{
closed = 1;
nodes = (
(300,400,l),
(300,500,l),
(200,500,l),
(200,400,l)
);
},
{
closed = 1;
nodes = (
(400,500,l),
(400,600,l),
(300,600,l),
(300,500,l)
);
},
{
closed = 1;
nodes = (
(300,200,l),
(300,300,l),
(200,300,l),
(200,200,l)
);
},
{
closed = 1;
nodes = (
(400,100,l),
(400,200,l),
(300,200,l),
(300,100,l)
);
}
);
width = 500;
}
);
unicode = 60;
},
{
glyphname = equal;
lastChange = "2024-07-09 21:43:44 +0000";
layers = (
{
layerId = m01;
shapes = (
{
closed = 1;
nodes = (
(500,400,l),
(500,500,l),
(0,500,l),
(0,400,l)
);
},
{
closed = 1;
nodes = (
(500,200,l),
(500,300,l),
(0,300,l),
(0,200,l)
);
}
);
width = 600;
}
);
unicode = 61;
},
{
glyphname = greater;
lastChange = "2024-07-09 21:47:55 +0000";
layers = (
{
layerId = m01;
shapes = (
{
closed = 1;
nodes = (
(200,100,l),
(200,200,l),
(100,200,l),
(100,100,l)
);
},
{
closed = 1;
nodes = (
(300,200,l),
(300,300,l),
(200,300,l),
(200,200,l)
);
},
{
closed = 1;
nodes = (
(400,300,l),
(400,400,l),
(300,400,l),
(300,300,l)
);
},
{
closed = 1;
nodes = (
(300,400,l),
(300,500,l),
(200,500,l),
(200,400,l)
);
},
{
closed = 1;
nodes = (
(200,500,l),
(200,600,l),
(100,600,l),
(100,500,l)
);
}
);
width = 500;
}
);
unicode = 62;
},
{
glyphname = question;
lastChange = "2024-07-09 21:47:59 +0000";
layers = (
{
layerId = m01;
shapes = (
{
closed = 1;
nodes = (
(200,500,l),
(200,600,l),
(100,600,l),
(100,500,l)
);
},
{
closed = 1;
nodes = (
(400,600,l),
(400,700,l),
(200,700,l),
(200,600,l)
);
},
{
closed = 1;
nodes = (
(400,400,l),
(500,400,l),
(500,600,l),
(400,600,l)
);
},
{
closed = 1;
nodes = (
(300,400,l),
(300,300,l),
(400,300,l),
(400,400,l)
);
},
{
closed = 1;
nodes = (
(200,300,l),
(200,200,l),
(300,200,l),
(300,300,l)
);
},
{
closed = 1;
nodes = (
(300,0,l),
(300,100,l),
(200,100,l),
(200,0,l)
);
}
);
width = 600;
}
);
unicode = 63;
},
{
glyphname = at;
lastChange = "2024-07-09 21:43:44 +0000";
layers = (
{
layerId = m01;
shapes = (
{
closed = 1;
nodes = (
(500,-100,l),
(500,0,l),
(200,0,l),
(200,-100,l)
);
},
{
closed = 1;
nodes = (
(200,0,l),
(200,100,l),
(100,100,l),
(100,0,l)
);
},
{
closed = 1;
nodes = (
(100,100,l),
(100,500,l),
(0,500,l),
(0,100,l)
);
},
{
closed = 1;
nodes = (
(200,500,l),
(200,600,l),
(100,600,l),
(100,500,l)
);
},
{
closed = 1;
nodes = (
(500,600,l),
(500,700,l),
(200,700,l),
(200,600,l)
);
},
{
closed = 1;
nodes = (
(300,500,l),
(300,400,l),
(400,400,l),
(400,200,l),
(300,200,l),
(300,100,l),
(600,100,l),
(600,200,l),
(500,200,l),
(500,500,l)
);
},
{
closed = 1;
nodes = (
(600,500,l),
(600,600,l),
(500,600,l),
(500,500,l)
);
},
{
closed = 1;
nodes = (
(600,200,l),
(700,200,l),
(700,500,l),
(600,500,l)
);
},
{
closed = 1;
nodes = (
(300,200,l),
(300,400,l),
(200,400,l),
(200,200,l)
);
}
);
width = 800;
}
);
unicode = 64;
},
{
glyphname = A;
lastChange = "2024-07-09 21:48:10 +0000";
layers = (
{
layerId = m01;
shapes = (
{
closed = 1;
nodes = (
(200,0,l),
(200,200,l),
(500,200,l),
(500,0,l),
(600,0,l),
(600,300,l),
(500,300,l),
(500,500,l),
(400,500,l),
(400,300,l),
(300,300,l),
(300,500,l),
(200,500,l),
(200,300,l),
(100,300,l),
(100,0,l)
);
},
{
closed = 1;
nodes = (
(400,500,l),
(400,700,l),
(300,700,l),
(300,500,l)
);
}
);
width = 700;
}
);
unicode = 65;
},
{
glyphname = B;
lastChange = "2024-07-09 21:43:38 +0000";
layers = (
{
layerId = m01;
shapes = (
{
closed = 1;
nodes = (
(400,0,l),
(400,100,l),
(100,100,l),
(100,300,l),
(400,300,l),
(400,400,l),
(100,400,l),
(100,600,l),
(400,600,l),
(400,700,l),
(0,700,l),
(0,0,l)
);
},
{
closed = 1;
nodes = (
(400,400,l),
(500,400,l),
(500,600,l),
(400,600,l)
);
},
{
closed = 1;
nodes = (
(400,100,l),
(500,100,l),
(500,300,l),
(400,300,l)
);
}
);
width = 600;
}
);
unicode = 66;
},
{
glyphname = C;
lastChange = "2024-07-09 21:43:38 +0000";
layers = (
{
layerId = m01;
shapes = (
{
closed = 1;
nodes = (
(0,100,l),
(100,100,l),
(100,600,l),
(0,600,l)
);
},
{
closed = 1;
nodes = (
(400,0,l),
(400,100,l),
(100,100,l),
(100,0,l)
);
},
{
closed = 1;
nodes = (
(500,100,l),
(500,200,l),
(400,200,l),
(400,100,l)
);
},
{
closed = 1;
nodes = (
(500,500,l),
(500,600,l),
(400,600,l),
(400,500,l)
);
},
{
closed = 1;
nodes = (
(400,600,l),
(400,700,l),
(100,700,l),
(100,600,l)
);
}
);
width = 600;
}
);
unicode = 67;
},
{
glyphname = D;
lastChange = "2024-07-09 21:43:44 +0000";
layers = (
{
layerId = m01;
shapes = (
{
closed = 1;
nodes = (
(300,0,l),
(300,100,l),
(100,100,l),
(100,600,l),
(300,600,l),
(300,700,l),
(0,700,l),
(0,0,l)
);
},
{
closed = 1;
nodes = (
(400,500,l),
(400,600,l),
(300,600,l),
(300,500,l)
);
},
{
closed = 1;
nodes = (
(400,200,l),
(500,200,l),
(500,500,l),
(400,500,l)
);
},
{
closed = 1;
nodes = (
(300,200,l),
(300,100,l),
(400,100,l),
(400,200,l)
);
}
);
width = 600;
}
);
unicode = 68;
},
{
glyphname = E;
lastChange = "2024-07-09 21:43:44 +0000";
layers = (
{
layerId = m01;
shapes = (
{
closed = 1;
nodes = (
(0,0,l),
(400,0,l),
(400,100,l),
(100,100,l),
(100,300,l),
(300,300,l),
(300,400,l),
(100,400,l),
(100,600,l),
(400,600,l),
(400,700,l),
(0,700,l)
);
}
);
width = 500;
}
);
unicode = 69;
},
{
glyphname = F;
lastChange = "2024-07-09 21:43:44 +0000";
layers = (
{
layerId = m01;
shapes = (
{
closed = 1;
nodes = (
(100,0,l),
(100,300,l),
(300,300,l),
(300,400,l),
(100,400,l),
(100,600,l),
(400,600,l),
(400,700,l),
(0,700,l),
(0,0,l)
);
}
);
width = 500;
}
);
unicode = 70;
},
{
glyphname = G;
lastChange = "2024-07-09 21:43:38 +0000";
layers = (
{
layerId = m01;
shapes = (
{
closed = 1;
nodes = (
(0,100,l),
(100,100,l),
(100,600,l),
(0,600,l)
);
},
{
closed = 1;
nodes = (
(400,0,l),
(400,100,l),
(100,100,l),
(100,0,l)
);
},
{
closed = 1;
nodes = (
(500,100,l),
(500,400,l),
(300,400,l),
(300,300,l),
(400,300,l),
(400,100,l)
);
},
{
closed = 1;
nodes = (
(500,500,l),
(500,600,l),
(400,600,l),
(400,500,l)
);
},
{
closed = 1;
nodes = (
(400,600,l),
(400,700,l),
(100,700,l),
(100,600,l)
);
}
);
width = 600;
}
);
unicode = 71;
},
{
glyphname = H;
lastChange = "2024-07-09 21:43:38 +0000";
layers = (
{
layerId = m01;
shapes = (
{
closed = 1;
nodes = (
(100,0,l),
(100,300,l),
(400,300,l),
(400,0,l),
(500,0,l),
(500,700,l),
(400,700,l),
(400,400,l),
(100,400,l),
(100,700,l),
(0,700,l),
(0,0,l)
);
}
);
width = 600;
}
);
unicode = 72;
},
{
glyphname = I;
lastChange = "2024-07-09 21:48:19 +0000";
layers = (
{
layerId = m01;
shapes = (
{
closed = 1;
nodes = (
(100,0,l),
(200,0,l),
(200,700,l),
(100,700,l)
);
}
);
width = 300;
}
);
unicode = 73;
},
{
glyphname = J;
lastChange = "2024-07-09 21:43:44 +0000";
layers = (
{
layerId = m01;
shapes = (
{
closed = 1;
nodes = (
(0,100,l),
(100,100,l),
(100,300,l),
(0,300,l)
);
},
{
closed = 1;
nodes = (
(400,0,l),
(400,100,l),
(100,100,l),
(100,0,l)
);
},
{
closed = 1;
nodes = (
(500,100,l),
(500,700,l),
(400,700,l),
(400,100,l)
);
}
);
width = 600;
}
);
unicode = 74;
},
{
glyphname = K;
lastChange = "2024-07-09 21:43:44 +0000";
layers = (
{
layerId = m01;
shapes = (
{
closed = 1;
nodes = (
(100,0,l),
(100,300,l),
(200,300,l),
(200,400,l),
(100,400,l),
(100,700,l),
(0,700,l),
(0,0,l)
);
},
{
closed = 1;
nodes = (
(300,400,l),
(300,500,l),
(200,500,l),
(200,400,l)
);
},
{
closed = 1;
nodes = (
(400,500,l),
(400,600,l),
(300,600,l),
(300,500,l)
);
},
{
closed = 1;
nodes = (
(500,600,l),
(500,700,l),
(400,700,l),
(400,600,l)
);
},
{
closed = 1;
nodes = (
(300,200,l),
(300,300,l),
(200,300,l),
(200,200,l)
);
},
{
closed = 1;
nodes = (
(500,0,l),
(500,100,l),
(400,100,l),
(400,0,l)
);
},
{
closed = 1;
nodes = (
(400,100,l),
(400,200,l),
(300,200,l),
(300,100,l)
);
}
);
width = 600;
}
);
unicode = 75;
},
{
glyphname = L;
lastChange = "2024-07-09 21:43:44 +0000";
layers = (
{
layerId = m01;
shapes = (
{
closed = 1;
nodes = (
(0,0,l),
(400,0,l),
(400,100,l),
(100,100,l),
(100,700,l),
(0,700,l)
);
}
);
width = 500;
}
);
unicode = 76;
},
{
glyphname = M;
lastChange = "2024-07-09 21:43:44 +0000";
layers = (
{
layerId = m01;
shapes = (
{
closed = 1;
nodes = (
(100,0,l),
(100,500,l),
(200,500,l),
(200,600,l),
(100,600,l),
(100,700,l),
(0,700,l),
(0,0,l)
);
},
{
closed = 1;
nodes = (
(300,400,l),
(300,500,l),
(200,500,l),
(200,400,l)
);
},
{
closed = 1;
nodes = (
(400,300,l),
(400,400,l),
(300,400,l),
(300,300,l)
);
},
{
closed = 1;
nodes = (
(500,400,l),
(500,500,l),
(400,500,l),
(400,400,l)
);
},
{
closed = 1;
nodes = (
(600,500,l),
(600,0,l),
(700,0,l),
(700,700,l),
(600,700,l),
(600,600,l),
(500,600,l),
(500,500,l)
);
}
);
width = 800;
}
);
unicode = 77;
},
{
glyphname = N;
lastChange = "2024-07-09 21:43:38 +0000";
layers = (
{
layerId = m01;
shapes = (
{
closed = 1;
nodes = (
(100,0,l),
(100,500,l),
(200,500,l),
(200,700,l),
(0,700,l),
(0,0,l)
);
},
{
closed = 1;
nodes = (
(200,300,l),
(300,300,l),
(300,500,l),
(200,500,l)
);
},
{
closed = 1;
nodes = (
(300,100,l),
(400,100,l),
(400,0,l),
(500,0,l),
(500,700,l),
(400,700,l),
(400,300,l),
(300,300,l)
);
}
);
width = 600;
}
);
unicode = 78;
},
{
glyphname = O;
lastChange = "2024-07-09 21:43:38 +0000";
layers = (
{
layerId = m01;
shapes = (
{
closed = 1;
nodes = (
(100,100,l),
(100,600,l),
(0,600,l),
(0,100,l)
);
},
{
closed = 1;
nodes = (
(400,600,l),
(400,700,l),
(100,700,l),
(100,600,l)
);
},
{
closed = 1;
nodes = (
(400,100,l),
(500,100,l),
(500,600,l),
(400,600,l)
);
},
{
closed = 1;
nodes = (
(100,100,l),
(100,0,l),
(400,0,l),
(400,100,l)
);
}
);
width = 600;
}
);
unicode = 79;
},
{
glyphname = P;
lastChange = "2024-07-09 21:43:44 +0000";
layers = (
{
layerId = m01;
shapes = (
{
closed = 1;
nodes = (
(100,0,l),
(100,300,l),
(400,300,l),
(400,400,l),
(100,400,l),
(100,600,l),
(400,600,l),
(400,700,l),
(0,700,l),
(0,0,l)
);
},
{
closed = 1;
nodes = (
(400,400,l),
(500,400,l),
(500,600,l),
(400,600,l)
);
}
);
width = 600;
}
);
unicode = 80;
},
{
glyphname = Q;
lastChange = "2024-07-09 21:43:38 +0000";
layers = (
{
layerId = m01;
shapes = (
{
closed = 1;
nodes = (
(100,100,l),
(100,600,l),
(0,600,l),
(0,100,l)
);
},
{
closed = 1;
nodes = (
(400,600,l),
(400,700,l),
(100,700,l),
(100,600,l)
);
},
{
closed = 1;
nodes = (
(400,100,l),
(500,100,l),
(500,600,l),
(400,600,l)
);
},
{
closed = 1;
nodes = (
(300,100,l),
(300,200,l),
(200,200,l),
(200,100,l),
(100,100,l),
(100,0,l),
(300,0,l),
(300,-100,l),
(400,-100,l),
(400,100,l)
);
}
);
width = 600;
}
);
unicode = 81;
},
{
glyphname = R;
lastChange = "2024-07-09 21:43:38 +0000";
layers = (
{
layerId = m01;
shapes = (
{
closed = 1;
nodes = (
(100,0,l),
(100,300,l),
(200,300,l),
(200,200,l),
(300,200,l),
(300,300,l),
(400,300,l),
(400,400,l),
(100,400,l),
(100,600,l),
(400,600,l),
(400,700,l),
(0,700,l),
(0,0,l)
);
},
{
closed = 1;
nodes = (
(400,400,l),
(500,400,l),
(500,600,l),
(400,600,l)
);
},
{
closed = 1;
nodes = (
(400,100,l),
(400,200,l),
(300,200,l),
(300,100,l)
);
},
{
closed = 1;
nodes = (
(500,0,l),
(500,100,l),
(400,100,l),
(400,0,l)
);
}
);
width = 600;
}
);
unicode = 82;
},
{
glyphname = S;
lastChange = "2024-07-09 21:43:38 +0000";
layers = (
{
layerId = m01;
shapes = (
{
closed = 1;
nodes = (
(500,500,l),
(500,600,l),
(400,600,l),
(400,500,l)
);
},
{
closed = 1;
nodes = (
(400,600,l),
(400,700,l),
(100,700,l),
(100,600,l)
);
},
{
closed = 1;
nodes = (
(0,600,l),
(0,400,l),
(100,400,l),
(100,600,l)
);
},
{
closed = 1;
nodes = (
(400,300,l),
(400,400,l),
(100,400,l),
(100,300,l)
);
},
{
closed = 1;
nodes = (
(400,100,l),
(500,100,l),
(500,300,l),
(400,300,l)
);
},
{
closed = 1;
nodes = (
(100,100,l),
(100,0,l),
(400,0,l),
(400,100,l)
);
},
{
closed = 1;
nodes = (
(100,100,l),
(100,200,l),
(0,200,l),
(0,100,l)
);
}
);
width = 600;
}
);
unicode = 83;
},
{
glyphname = T;
lastChange = "2024-07-09 21:43:38 +0000";
layers = (
{
layerId = m01;
shapes = (
{
closed = 1;
nodes = (
(200,600,l),
(200,0,l),
(300,0,l),
(300,600,l),
(500,600,l),
(500,700,l),
(0,700,l),
(0,600,l)
);
}
);
width = 600;
}
);
unicode = 84;
},
{
glyphname = U;
lastChange = "2024-07-09 21:43:38 +0000";
layers = (
{
layerId = m01;
shapes = (
{
closed = 1;
nodes = (
(0,100,l),
(100,100,l),
(100,700,l),
(0,700,l)
);
},
{
closed = 1;
nodes = (
(400,0,l),
(400,100,l),
(100,100,l),
(100,0,l)
);
},
{
closed = 1;
nodes = (
(500,100,l),
(500,700,l),
(400,700,l),
(400,100,l)
);
}
);
width = 600;
}
);
unicode = 85;
},
{
glyphname = V;
lastChange = "2024-07-09 21:43:38 +0000";
layers = (
{
layerId = m01;
shapes = (
{
closed = 1;
nodes = (
(0,400,l),
(100,400,l),
(100,700,l),
(0,700,l)
);
},
{
closed = 1;
nodes = (
(100,200,l),
(200,200,l),
(200,400,l),
(100,400,l)
);
},
{
closed = 1;
nodes = (
(200,0,l),
(300,0,l),
(300,200,l),
(200,200,l)
);
},
{
closed = 1;
nodes = (
(400,200,l),
(400,400,l),
(300,400,l),
(300,200,l)
);
},
{
closed = 1;
nodes = (
(500,400,l),
(500,700,l),
(400,700,l),
(400,400,l)
);
}
);
width = 600;
}
);
unicode = 86;
},
{
glyphname = W;
lastChange = "2024-07-09 21:43:44 +0000";
layers = (
{
layerId = m01;
shapes = (
{
closed = 1;
nodes = (
(0,500,l),
(100,500,l),
(100,700,l),
(0,700,l)
);
},
{
closed = 1;
nodes = (
(100,300,l),
(200,300,l),
(200,500,l),
(100,500,l)
);
},
{
closed = 1;
nodes = (
(200,0,l),
(300,0,l),
(300,300,l),
(200,300,l)
);
},
{
closed = 1;
nodes = (
(400,300,l),
(400,500,l),
(300,500,l),
(300,300,l)
);
},
{
closed = 1;
nodes = (
(400,0,l),
(500,0,l),
(500,300,l),
(400,300,l)
);
},
{
closed = 1;
nodes = (
(600,300,l),
(600,500,l),
(500,500,l),
(500,300,l)
);
},
{
closed = 1;
nodes = (
(700,500,l),
(700,700,l),
(600,700,l),
(600,500,l)
);
}
);
width = 800;
}
);
unicode = 87;
},
{
glyphname = X;
lastChange = "2024-07-09 21:43:38 +0000";
layers = (
{
layerId = m01;
shapes = (
{
closed = 1;
nodes = (
(0,500,l),
(100,500,l),
(100,700,l),
(0,700,l)
);
},
{
closed = 1;
nodes = (
(200,400,l),
(200,500,l),
(100,500,l),
(100,400,l)
);
},
{
closed = 1;
nodes = (
(100,300,l),
(100,200,l),
(200,200,l),
(200,300,l)
);
},
{
closed = 1;
nodes = (
(300,300,l),
(300,400,l),
(200,400,l),
(200,300,l)
);
},
{
closed = 1;
nodes = (
(400,400,l),
(400,500,l),
(300,500,l),
(300,400,l)
);
},
{
closed = 1;
nodes = (
(400,500,l),
(500,500,l),
(500,700,l),
(400,700,l)
);
},
{
closed = 1;
nodes = (
(400,200,l),
(400,300,l),
(300,300,l),
(300,200,l)
);
},
{
closed = 1;
nodes = (
(400,0,l),
(500,0,l),
(500,200,l),
(400,200,l)
);
},
{
closed = 1;
nodes = (
(0,200,l),
(0,0,l),
(100,0,l),
(100,200,l)
);
}
);
width = 600;
}
);
unicode = 88;
},
{
glyphname = Y;
lastChange = "2024-07-09 21:43:38 +0000";
layers = (
{
layerId = m01;
shapes = (
{
closed = 1;
nodes = (
(0,500,l),
(100,500,l),
(100,700,l),
(0,700,l)
);
},
{
closed = 1;
nodes = (
(200,400,l),
(200,500,l),
(100,500,l),
(100,400,l)
);
},
{
closed = 1;
nodes = (
(200,0,l),
(300,0,l),
(300,400,l),
(200,400,l)
);
},
{
closed = 1;
nodes = (
(400,400,l),
(400,500,l),
(300,500,l),
(300,400,l)
);
},
{
closed = 1;
nodes = (
(500,500,l),
(500,700,l),
(400,700,l),
(400,500,l)
);
}
);
width = 600;
}
);
unicode = 89;
},
{
glyphname = Z;
lastChange = "2024-07-09 21:43:44 +0000";
layers = (
{
layerId = m01;
shapes = (
{
closed = 1;
nodes = (
(300,600,l),
(300,500,l),
(400,500,l),
(400,700,l),
(0,700,l),
(0,600,l)
);
},
{
closed = 1;
nodes = (
(200,500,l),
(200,400,l),
(300,400,l),
(300,500,l)
);
},
{
closed = 1;
nodes = (
(100,400,l),
(100,300,l),
(200,300,l),
(200,400,l)
);
},
{
closed = 1;
nodes = (
(0,300,l),
(0,0,l),
(400,0,l),
(400,100,l),
(100,100,l),
(100,300,l)
);
}
);
width = 500;
}
);
unicode = 90;
},
{
glyphname = bracketleft;
lastChange = "2024-07-09 21:48:34 +0000";
layers = (
{
layerId = m01;
shapes = (
{
closed = 1;
nodes = (
(300,700,l),
(300,800,l),
(100,800,l),
(100,-100,l),
(300,-100,l),
(300,0,l),
(200,0,l),
(200,700,l)
);
}
);
width = 400;
}
);
unicode = 91;
},
{
glyphname = backslash;
lastChange = "2024-07-09 21:48:37 +0000";
layers = (
{
layerId = m01;
shapes = (
{
closed = 1;
nodes = (
(500,0,l),
(500,200,l),
(400,200,l),
(400,0,l)
);
},
{
closed = 1;
nodes = (
(400,200,l),
(400,400,l),
(300,400,l),
(300,200,l)
);
},
{
closed = 1;
nodes = (
(200,400,l),
(300,400,l),
(300,600,l),
(200,600,l)
);
},
{
closed = 1;
nodes = (
(200,600,l),
(200,800,l),
(100,800,l),
(100,600,l)
);
}
);
width = 600;
}
);
unicode = 92;
},
{
glyphname = bracketright;
lastChange = "2024-07-09 21:48:37 +0000";
layers = (
{
layerId = m01;
shapes = (
{
closed = 1;
nodes = (
(200,700,l),
(200,0,l),
(100,0,l),
(100,-100,l),
(300,-100,l),
(300,800,l),
(100,800,l),
(100,700,l)
);
}
);
width = 400;
}
);
unicode = 93;
},
{
glyphname = asciicircum;
lastChange = "2024-07-09 21:43:44 +0000";
layers = (
{
layerId = m01;
shapes = (
{
closed = 1;
nodes = (
(100,500,l),
(100,600,l),
(0,600,l),
(0,500,l)
);
},
{
closed = 1;
nodes = (
(200,600,l),
(200,700,l),
(100,700,l),
(100,600,l)
);
},
{
closed = 1;
nodes = (
(300,500,l),
(300,600,l),
(200,600,l),
(200,500,l)
);
}
);
width = 400;
}
);
unicode = 94;
},
{
glyphname = underscore;
lastChange = "2024-07-09 21:57:44 +0000";
layers = (
{
layerId = m01;
shapes = (
{
closed = 1;
nodes = (
(600,0,l),
(600,100,l),
(0,100,l),
(0,0,l)
);
}
);
width = 600;
}
);
unicode = 95;
},
{
glyphname = grave;
lastChange = "2024-07-09 21:43:44 +0000";
layers = (
{
layerId = m01;
shapes = (
{
closed = 1;
nodes = (
(100,600,l),
(100,700,l),
(0,700,l),
(0,600,l)
);
},
{
closed = 1;
nodes = (
(200,500,l),
(200,600,l),
(100,600,l),
(100,500,l)
);
}
);
width = 300;
}
);
unicode = 96;
},
{
glyphname = a;
lastChange = "2024-07-09 21:43:44 +0000";
layers = (
{
layerId = m01;
shapes = (
{
closed = 1;
nodes = (
(300,400,l),
(300,500,l),
(100,500,l),
(100,400,l)
);
},
{
closed = 1;
nodes = (
(100,300,l),
(100,200,l),
(300,200,l),
(300,100,l),
(100,100,l),
(100,0,l),
(400,0,l),
(400,400,l),
(300,400,l),
(300,300,l)
);
},
{
closed = 1;
nodes = (
(100,100,l),
(100,200,l),
(0,200,l),
(0,100,l)
);
}
);
width = 500;
}
);
unicode = 97;
},
{
glyphname = b;
lastChange = "2024-07-09 21:43:44 +0000";
layers = (
{
layerId = m01;
shapes = (
{
closed = 1;
nodes = (
(0,0,l),
(300,0,l),
(300,100,l),
(100,100,l),
(100,400,l),
(300,400,l),
(300,500,l),
(100,500,l),
(100,700,l),
(0,700,l)
);
},
{
closed = 1;
nodes = (
(400,100,l),
(400,400,l),
(300,400,l),
(300,100,l)
);
}
);
width = 500;
}
);
unicode = 98;
},
{
glyphname = c;
lastChange = "2024-07-09 21:43:44 +0000";
layers = (
{
layerId = m01;
shapes = (
{
closed = 1;
nodes = (
(400,300,l),
(400,400,l),
(300,400,l),
(300,300,l)
);
},
{
closed = 1;
nodes = (
(300,400,l),
(300,500,l),
(100,500,l),
(100,400,l)
);
},
{
closed = 1;
nodes = (
(0,400,l),
(0,100,l),
(100,100,l),
(100,400,l)
);
},
{
closed = 1;
nodes = (
(300,0,l),
(300,100,l),
(100,100,l),
(100,0,l)
);
},
{
closed = 1;
nodes = (
(400,100,l),
(400,200,l),
(300,200,l),
(300,100,l)
);
}
);
width = 500;
}
);
unicode = 99;
},
{
glyphname = d;
lastChange = "2024-07-09 21:43:44 +0000";
layers = (
{
layerId = m01;
shapes = (
{
closed = 1;
nodes = (
(100,100,l),
(100,400,l),
(0,400,l),
(0,100,l)
);
},
{
closed = 1;
nodes = (
(300,400,l),
(300,100,l),
(100,100,l),
(100,0,l),
(400,0,l),
(400,700,l),
(300,700,l),
(300,500,l),
(100,500,l),
(100,400,l)
);
}
);
width = 500;
}
);
unicode = 100;
},
{
glyphname = e;
lastChange = "2024-07-09 21:43:44 +0000";
layers = (
{
layerId = m01;
shapes = (
{
closed = 1;
nodes = (
(0,100,l),
(100,100,l),
(100,200,l),
(400,200,l),
(400,400,l),
(300,400,l),
(300,300,l),
(100,300,l),
(100,400,l),
(0,400,l)
);
},
{
closed = 1;
nodes = (
(300,0,l),
(300,100,l),
(100,100,l),
(100,0,l)
);
},
{
closed = 1;
nodes = (
(300,400,l),
(300,500,l),
(100,500,l),
(100,400,l)
);
}
);
width = 500;
}
);
unicode = 101;
},
{
glyphname = f;
lastChange = "2024-07-09 21:58:35 +0000";
layers = (
{
layerId = m01;
shapes = (
{
closed = 1;
nodes = (
(200,0,l),
(200,400,l),
(300,400,l),
(300,500,l),
(200,500,l),
(200,600,l),
(100,600,l),
(100,500,l),
(0,500,l),
(0,400,l),
(100,400,l),
(100,0,l)
);
},
{
closed = 1;
nodes = (
(400,600,l),
(400,700,l),
(200,700,l),
(200,600,l)
);
}
);
width = 400;
}
);
unicode = 102;
},
{
glyphname = g;
lastChange = "2024-07-09 21:43:44 +0000";
layers = (
{
layerId = m01;
shapes = (
{
closed = 1;
nodes = (
(0,100,l),
(100,100,l),
(100,400,l),
(0,400,l)
);
},
{
closed = 1;
nodes = (
(300,0,l),
(300,-100,l),
(400,-100,l),
(400,500,l),
(100,500,l),
(100,400,l),
(300,400,l),
(300,100,l),
(100,100,l),
(100,0,l)
);
},
{
closed = 1;
nodes = (
(100,-100,l),
(100,-200,l),
(300,-200,l),
(300,-100,l)
);
}
);
width = 500;
}
);
unicode = 103;
},
{
glyphname = h;
lastChange = "2024-07-09 21:43:44 +0000";
layers = (
{
layerId = m01;
shapes = (
{
closed = 1;
nodes = (
(100,0,l),
(100,400,l),
(300,400,l),
(300,500,l),
(100,500,l),
(100,700,l),
(0,700,l),
(0,0,l)
);
},
{
closed = 1;
nodes = (
(300,0,l),
(400,0,l),
(400,400,l),
(300,400,l)
);
}
);
width = 500;
}
);
unicode = 104;
},
{
glyphname = i;
lastChange = "2024-07-09 21:43:44 +0000";
layers = (
{
layerId = m01;
shapes = (
{
closed = 1;
nodes = (
(200,0,l),
(200,500,l),
(0,500,l),
(0,400,l),
(100,400,l),
(100,0,l)
);
},
{
closed = 1;
nodes = (
(200,600,l),
(200,700,l),
(100,700,l),
(100,600,l)
);
}
);
width = 300;
}
);
unicode = 105;
},
{
glyphname = j;
lastChange = "2024-07-09 21:43:44 +0000";
layers = (
{
layerId = m01;
shapes = (
{
closed = 1;
nodes = (
(300,600,l),
(300,700,l),
(200,700,l),
(200,600,l)
);
},
{
closed = 1;
nodes = (
(200,400,l),
(200,-100,l),
(300,-100,l),
(300,500,l),
(100,500,l),
(100,400,l)
);
},
{
closed = 1;
nodes = (
(0,-100,l),
(0,-200,l),
(200,-200,l),
(200,-100,l)
);
}
);
width = 400;
}
);
unicode = 106;
},
{
glyphname = k;
lastChange = "2024-07-09 21:43:44 +0000";
layers = (
{
layerId = m01;
shapes = (
{
closed = 1;
nodes = (
(100,0,l),
(100,200,l),
(200,200,l),
(200,300,l),
(100,300,l),
(100,700,l),
(0,700,l),
(0,0,l)
);
},
{
closed = 1;
nodes = (
(200,400,l),
(200,300,l),
(300,300,l),
(300,400,l)
);
},
{
closed = 1;
nodes = (
(400,400,l),
(400,500,l),
(300,500,l),
(300,400,l)
);
},
{
closed = 1;
nodes = (
(300,100,l),
(300,200,l),
(200,200,l),
(200,100,l)
);
},
{
closed = 1;
nodes = (
(400,0,l),
(400,100,l),
(300,100,l),
(300,0,l)
);
}
);
width = 500;
}
);
unicode = 107;
},
{
glyphname = l;
lastChange = "2024-07-09 21:43:44 +0000";
layers = (
{
layerId = m01;
shapes = (
{
closed = 1;
nodes = (
(100,600,l),
(100,0,l),
(200,0,l),
(200,700,l),
(0,700,l),
(0,600,l)
);
}
);
width = 300;
}
);
unicode = 108;
},
{
glyphname = m;
lastChange = "2024-07-09 21:43:44 +0000";
layers = (
{
layerId = m01;
shapes = (
{
closed = 1;
nodes = (
(100,0,l),
(100,400,l),
(300,400,l),
(300,500,l),
(0,500,l),
(0,0,l)
);
},
{
closed = 1;
nodes = (
(300,0,l),
(400,0,l),
(400,400,l),
(300,400,l)
);
},
{
closed = 1;
nodes = (
(600,400,l),
(600,500,l),
(400,500,l),
(400,400,l)
);
},
{
closed = 1;
nodes = (
(600,0,l),
(700,0,l),
(700,400,l),
(600,400,l)
);
}
);
width = 800;
}
);
unicode = 109;
},
{
glyphname = n;
lastChange = "2024-07-09 21:43:44 +0000";
layers = (
{
layerId = m01;
shapes = (
{
closed = 1;
nodes = (
(100,0,l),
(100,400,l),
(300,400,l),
(300,500,l),
(0,500,l),
(0,0,l)
);
},
{
closed = 1;
nodes = (
(300,0,l),
(400,0,l),
(400,400,l),
(300,400,l)
);
}
);
width = 500;
}
);
unicode = 110;
},
{
glyphname = o;
lastChange = "2024-07-09 21:43:44 +0000";
layers = (
{
layerId = m01;
shapes = (
{
closed = 1;
nodes = (
(0,100,l),
(100,100,l),
(100,400,l),
(0,400,l)
);
},
{
closed = 1;
nodes = (
(300,0,l),
(300,100,l),
(100,100,l),
(100,0,l)
);
},
{
closed = 1;
nodes = (
(400,100,l),
(400,400,l),
(300,400,l),
(300,100,l)
);
},
{
closed = 1;
nodes = (
(300,400,l),
(300,500,l),
(100,500,l),
(100,400,l)
);
}
);
width = 500;
}
);
unicode = 111;
},
{
glyphname = p;
lastChange = "2024-07-09 21:43:44 +0000";
layers = (
{
layerId = m01;
shapes = (
{
closed = 1;
nodes = (
(0,-200,l),
(100,-200,l),
(100,0,l),
(300,0,l),
(300,100,l),
(100,100,l),
(100,400,l),
(300,400,l),
(300,500,l),
(0,500,l)
);
},
{
closed = 1;
nodes = (
(400,100,l),
(400,400,l),
(300,400,l),
(300,100,l)
);
}
);
width = 500;
}
);
unicode = 112;
},
{
glyphname = q;
lastChange = "2024-07-09 21:43:44 +0000";
layers = (
{
layerId = m01;
shapes = (
{
closed = 1;
nodes = (
(0,100,l),
(100,100,l),
(100,400,l),
(0,400,l)
);
},
{
closed = 1;
nodes = (
(300,0,l),
(300,-200,l),
(400,-200,l),
(400,500,l),
(100,500,l),
(100,400,l),
(300,400,l),
(300,100,l),
(100,100,l),
(100,0,l)
);
}
);
width = 500;
}
);
unicode = 113;
},
{
glyphname = r;
lastChange = "2024-07-09 21:43:44 +0000";
layers = (
{
layerId = m01;
shapes = (
{
closed = 1;
nodes = (
(100,0,l),
(100,300,l),
(200,300,l),
(200,400,l),
(100,400,l),
(100,500,l),
(0,500,l),
(0,0,l)
);
},
{
closed = 1;
nodes = (
(400,400,l),
(400,500,l),
(200,500,l),
(200,400,l)
);
}
);
width = 500;
}
);
unicode = 114;
},
{
glyphname = s;
lastChange = "2024-07-09 21:43:44 +0000";
layers = (
{
layerId = m01;
shapes = (
{
closed = 1;
nodes = (
(400,400,l),
(400,500,l),
(100,500,l),
(100,400,l)
);
},
{
closed = 1;
nodes = (
(0,400,l),
(0,300,l),
(100,300,l),
(100,400,l)
);
},
{
closed = 1;
nodes = (
(300,200,l),
(300,300,l),
(100,300,l),
(100,200,l)
);
},
{
closed = 1;
nodes = (
(0,100,l),
(0,0,l),
(300,0,l),
(300,100,l)
);
},
{
closed = 1;
nodes = (
(400,100,l),
(400,200,l),
(300,200,l),
(300,100,l)
);
}
);
width = 500;
}
);
unicode = 115;
},
{
glyphname = t;
lastChange = "2024-07-09 21:43:44 +0000";
layers = (
{
layerId = m01;
shapes = (
{
closed = 1;
nodes = (
(200,100,l),
(200,400,l),
(300,400,l),
(300,500,l),
(200,500,l),
(200,700,l),
(100,700,l),
(100,500,l),
(0,500,l),
(0,400,l),
(100,400,l),
(100,100,l)
);
},
{
closed = 1;
nodes = (
(300,0,l),
(300,100,l),
(200,100,l),
(200,0,l)
);
}
);
width = 400;
}
);
unicode = 116;
},
{
glyphname = u;
lastChange = "2024-07-09 21:43:44 +0000";
layers = (
{
layerId = m01;
shapes = (
{
closed = 1;
nodes = (
(0,100,l),
(100,100,l),
(100,500,l),
(0,500,l)
);
},
{
closed = 1;
nodes = (
(400,0,l),
(400,500,l),
(300,500,l),
(300,100,l),
(100,100,l),
(100,0,l)
);
}
);
width = 500;
}
);
unicode = 117;
},
{
glyphname = v;
lastChange = "2024-07-09 21:43:44 +0000";
layers = (
{
layerId = m01;
shapes = (
{
closed = 1;
nodes = (
(100,400,l),
(100,500,l),
(0,500,l),
(0,400,l)
);
},
{
closed = 1;
nodes = (
(200,200,l),
(200,400,l),
(100,400,l),
(100,200,l)
);
},
{
closed = 1;
nodes = (
(200,0,l),
(300,0,l),
(300,200,l),
(200,200,l)
);
},
{
closed = 1;
nodes = (
(400,200,l),
(400,400,l),
(300,400,l),
(300,200,l)
);
},
{
closed = 1;
nodes = (
(500,400,l),
(500,500,l),
(400,500,l),
(400,400,l)
);
}
);
width = 600;
}
);
unicode = 118;
},
{
glyphname = w;
lastChange = "2024-07-09 21:43:44 +0000";
layers = (
{
layerId = m01;
shapes = (
{
closed = 1;
nodes = (
(100,400,l),
(100,500,l),
(0,500,l),
(0,400,l)
);
},
{
closed = 1;
nodes = (
(100,200,l),
(200,200,l),
(200,400,l),
(100,400,l)
);
},
{
closed = 1;
nodes = (
(200,0,l),
(300,0,l),
(300,200,l),
(200,200,l)
);
},
{
closed = 1;
nodes = (
(400,200,l),
(400,400,l),
(300,400,l),
(300,200,l)
);
},
{
closed = 1;
nodes = (
(400,0,l),
(500,0,l),
(500,200,l),
(400,200,l)
);
},
{
closed = 1;
nodes = (
(600,200,l),
(600,400,l),
(500,400,l),
(500,200,l)
);
},
{
closed = 1;
nodes = (
(700,400,l),
(700,500,l),
(600,500,l),
(600,400,l)
);
}
);
width = 800;
}
);
unicode = 119;
},
{
glyphname = x;
lastChange = "2024-07-09 21:43:44 +0000";
layers = (
{
layerId = m01;
shapes = (
{
closed = 1;
nodes = (
(100,0,l),
(100,100,l),
(0,100,l),
(0,0,l)
);
},
{
closed = 1;
nodes = (
(200,100,l),
(200,200,l),
(100,200,l),
(100,100,l)
);
},
{
closed = 1;
nodes = (
(300,200,l),
(300,300,l),
(200,300,l),
(200,200,l)
);
},
{
closed = 1;
nodes = (
(400,300,l),
(400,400,l),
(300,400,l),
(300,300,l)
);
},
{
closed = 1;
nodes = (
(500,400,l),
(500,500,l),
(400,500,l),
(400,400,l)
);
},
{
closed = 1;
nodes = (
(500,0,l),
(500,100,l),
(400,100,l),
(400,0,l)
);
},
{
closed = 1;
nodes = (
(400,100,l),
(400,200,l),
(300,200,l),
(300,100,l)
);
},
{
closed = 1;
nodes = (
(200,300,l),
(200,400,l),
(100,400,l),
(100,300,l)
);
},
{
closed = 1;
nodes = (
(100,400,l),
(100,500,l),
(0,500,l),
(0,400,l)
);
}
);
width = 600;
}
);
unicode = 120;
},
{
glyphname = y;
lastChange = "2024-07-09 21:43:44 +0000";
layers = (
{
layerId = m01;
shapes = (
{
closed = 1;
nodes = (
(0,100,l),
(100,100,l),
(100,500,l),
(0,500,l)
);
},
{
closed = 1;
nodes = (
(300,0,l),
(300,-100,l),
(400,-100,l),
(400,500,l),
(300,500,l),
(300,100,l),
(100,100,l),
(100,0,l)
);
},
{
closed = 1;
nodes = (
(100,-100,l),
(100,-200,l),
(300,-200,l),
(300,-100,l)
);
}
);
width = 500;
}
);
unicode = 121;
},
{
glyphname = z;
lastChange = "2024-07-09 21:49:09 +0000";
layers = (
{
layerId = m01;
shapes = (
{
closed = 1;
nodes = (
(300,400,l),
(300,300,l),
(400,300,l),
(400,400,l),
(500,400,l),
(500,500,l),
(100,500,l),
(100,400,l)
);
},
{
closed = 1;
nodes = (
(200,300,l),
(200,200,l),
(300,200,l),
(300,300,l)
);
},
{
closed = 1;
nodes = (
(100,200,l),
(100,0,l),
(500,0,l),
(500,100,l),
(200,100,l),
(200,200,l)
);
}
);
width = 600;
}
);
unicode = 122;
},
{
glyphname = braceleft;
lastChange = "2024-07-09 21:43:44 +0000";
layers = (
{
layerId = m01;
shapes = (
{
closed = 1;
nodes = (
(300,-100,l),
(300,0,l),
(200,0,l),
(200,-100,l)
);
},
{
closed = 1;
nodes = (
(200,0,l),
(200,300,l),
(100,300,l),
(100,0,l)
);
},
{
closed = 1;
nodes = (
(100,300,l),
(100,400,l),
(0,400,l),
(0,300,l)
);
},
{
closed = 1;
nodes = (
(200,400,l),
(200,700,l),
(100,700,l),
(100,400,l)
);
},
{
closed = 1;
nodes = (
(300,700,l),
(300,800,l),
(200,800,l),
(200,700,l)
);
}
);
width = 400;
}
);
unicode = 123;
},
{
glyphname = bar;
lastChange = "2024-07-09 21:43:44 +0000";
layers = (
{
layerId = m01;
shapes = (
{
closed = 1;
nodes = (
(0,-100,l),
(100,-100,l),
(100,800,l),
(0,800,l)
);
}
);
width = 200;
}
);
unicode = 124;
},
{
glyphname = braceright;
lastChange = "2024-07-09 21:43:44 +0000";
layers = (
{
layerId = m01;
shapes = (
{
closed = 1;
nodes = (
(100,-100,l),
(100,0,l),
(0,0,l),
(0,-100,l)
);
},
{
closed = 1;
nodes = (
(200,0,l),
(200,300,l),
(100,300,l),
(100,0,l)
);
},
{
closed = 1;
nodes = (
(300,300,l),
(300,400,l),
(200,400,l),
(200,300,l)
);
},
{
closed = 1;
nodes = (
(200,400,l),
(200,700,l),
(100,700,l),
(100,400,l)
);
},
{
closed = 1;
nodes = (
(100,700,l),
(100,800,l),
(0,800,l),
(0,700,l)
);
}
);
width = 400;
}
);
unicode = 125;
},
{
glyphname = asciitilde;
lastChange = "2024-07-09 21:43:44 +0000";
layers = (
{
layerId = m01;
shapes = (
{
closed = 1;
nodes = (
(100,500,l),
(100,600,l),
(0,600,l),
(0,500,l)
);
},
{
closed = 1;
nodes = (
(200,600,l),
(200,500,l),
(400,500,l),
(400,600,l),
(300,600,l),
(300,700,l),
(100,700,l),
(100,600,l)
);
},
{
closed = 1;
nodes = (
(500,600,l),
(500,700,l),
(400,700,l),
(400,600,l)
);
}
);
width = 600;
}
);
unicode = 126;
},
{
glyphname = exclamdown;
lastChange = "2024-07-09 21:51:53 +0000";
layers = (
{
layerId = m01;
shapes = (
{
closed = 1;
nodes = (
(200,600,l),
(200,700,l),
(100,700,l),
(100,600,l)
);
},
{
closed = 1;
nodes = (
(100,0,l),
(200,0,l),
(200,500,l),
(100,500,l)
);
}
);
width = 300;
}
);
unicode = 161;
},
{
glyphname = cent;
lastChange = "2024-07-09 21:43:44 +0000";
layers = (
{
layerId = m01;
shapes = (
{
closed = 1;
nodes = (
(300,0,l),
(300,100,l),
(400,100,l),
(400,200,l),
(300,200,l),
(300,500,l),
(400,500,l),
(400,600,l),
(300,600,l),
(300,700,l),
(200,700,l),
(200,600,l),
(100,600,l),
(100,500,l),
(200,500,l),
(200,200,l),
(100,200,l),
(100,100,l),
(200,100,l),
(200,0,l)
);
},
{
closed = 1;
nodes = (
(100,200,l),
(100,500,l),
(0,500,l),
(0,200,l)
);
},
{
closed = 1;
nodes = (
(500,400,l),
(500,500,l),
(400,500,l),
(400,400,l)
);
},
{
closed = 1;
nodes = (
(500,200,l),
(500,300,l),
(400,300,l),
(400,200,l)
);
}
);
width = 600;
}
);
unicode = 162;
},
{
glyphname = sterling;
lastChange = "2024-07-09 21:43:44 +0000";
layers = (
{
layerId = m01;
shapes = (
{
closed = 1;
nodes = (
(400,0,l),
(400,100,l),
(200,100,l),
(200,300,l),
(300,300,l),
(300,400,l),
(200,400,l),
(200,600,l),
(100,600,l),
(100,400,l),
(0,400,l),
(0,300,l),
(100,300,l),
(100,100,l),
(0,100,l),
(0,0,l)
);
},
{
closed = 1;
nodes = (
(400,600,l),
(400,700,l),
(200,700,l),
(200,600,l)
);
},
{
closed = 1;
nodes = (
(500,100,l),
(500,200,l),
(400,200,l),
(400,100,l)
);
}
);
width = 600;
}
);
unicode = 163;
},
{
glyphname = yen;
lastChange = "2024-07-09 21:43:44 +0000";
layers = (
{
layerId = m01;
shapes = (
{
closed = 1;
nodes = (
(300,0,l),
(300,200,l),
(500,200,l),
(500,300,l),
(300,300,l),
(300,400,l),
(500,400,l),
(500,500,l),
(400,500,l),
(400,600,l),
(300,600,l),
(300,500,l),
(200,500,l),
(200,600,l),
(100,600,l),
(100,500,l),
(0,500,l),
(0,400,l),
(200,400,l),
(200,300,l),
(0,300,l),
(0,200,l),
(200,200,l),
(200,0,l)
);
},
{
closed = 1;
nodes = (
(100,600,l),
(100,700,l),
(0,700,l),
(0,600,l)
);
},
{
closed = 1;
nodes = (
(500,600,l),
(500,700,l),
(400,700,l),
(400,600,l)
);
}
);
width = 600;
}
);
unicode = 165;
},
{
glyphname = section;
lastChange = "2024-07-09 21:43:44 +0000";
layers = (
{
layerId = m01;
shapes = (
{
closed = 1;
nodes = (
(500,600,l),
(500,700,l),
(400,700,l),
(400,600,l)
);
},
{
closed = 1;
nodes = (
(400,700,l),
(400,800,l),
(100,800,l),
(100,700,l)
);
},
{
closed = 1;
nodes = (
(0,700,l),
(0,500,l),
(100,500,l),
(100,700,l)
);
},
{
closed = 1;
nodes = (
(0,400,l),
(0,300,l),
(100,300,l),
(100,400,l)
);
},
{
closed = 1;
nodes = (
(400,400,l),
(400,500,l),
(100,500,l),
(100,400,l)
);
},
{
closed = 1;
nodes = (
(100,300,l),
(100,200,l),
(400,200,l),
(400,300,l)
);
},
{
closed = 1;
nodes = (
(500,300,l),
(500,400,l),
(400,400,l),
(400,300,l)
);
},
{
closed = 1;
nodes = (
(400,0,l),
(500,0,l),
(500,200,l),
(400,200,l)
);
},
{
closed = 1;
nodes = (
(100,0,l),
(100,-100,l),
(400,-100,l),
(400,0,l)
);
},
{
closed = 1;
nodes = (
(100,0,l),
(100,100,l),
(0,100,l),
(0,0,l)
);
}
);
width = 600;
}
);
unicode = 167;
},
{
glyphname = dieresis;
lastChange = "2024-07-09 21:43:44 +0000";
layers = (
{
layerId = m01;
shapes = (
{
closed = 1;
nodes = (
(100,600,l),
(100,700,l),
(0,700,l),
(0,600,l)
);
},
{
closed = 1;
nodes = (
(300,600,l),
(300,700,l),
(200,700,l),
(200,600,l)
);
}
);
width = 400;
}
);
unicode = 168;
},
{
glyphname = copyright;
lastChange = "2024-07-09 21:43:44 +0000";
layers = (
{
layerId = m01;
shapes = (
{
closed = 1;
nodes = (
(100,200,l),
(100,600,l),
(0,600,l),
(0,200,l)
);
},
{
closed = 1;
nodes = (
(200,600,l),
(200,700,l),
(100,700,l),
(100,600,l)
);
},
{
closed = 1;
nodes = (
(600,700,l),
(600,800,l),
(200,800,l),
(200,700,l)
);
},
{
closed = 1;
nodes = (
(700,600,l),
(700,700,l),
(600,700,l),
(600,600,l)
);
},
{
closed = 1;
nodes = (
(700,200,l),
(800,200,l),
(800,600,l),
(700,600,l)
);
},
{
closed = 1;
nodes = (
(600,200,l),
(600,100,l),
(700,100,l),
(700,200,l)
);
},
{
closed = 1;
nodes = (
(200,100,l),
(200,0,l),
(600,0,l),
(600,100,l)
);
},
{
closed = 1;
nodes = (
(200,100,l),
(200,200,l),
(100,200,l),
(100,100,l)
);
},
{
closed = 1;
nodes = (
(500,200,l),
(500,300,l),
(300,300,l),
(300,200,l)
);
},
{
closed = 1;
nodes = (
(300,300,l),
(300,500,l),
(200,500,l),
(200,300,l)
);
},
{
closed = 1;
nodes = (
(500,500,l),
(500,600,l),
(300,600,l),
(300,500,l)
);
}
);
width = 900;
}
);
unicode = 169;
},
{
glyphname = ordfeminine;
lastChange = "2024-07-09 21:43:44 +0000";
layers = (
{
layerId = m01;
shapes = (
{
closed = 1;
nodes = (
(400,100,l),
(400,200,l),
(0,200,l),
(0,100,l)
);
},
{
closed = 1;
nodes = (
(400,300,l),
(400,700,l),
(100,700,l),
(100,600,l),
(300,600,l),
(300,400,l),
(100,400,l),
(100,300,l)
);
},
{
closed = 1;
nodes = (
(0,400,l),
(100,400,l),
(100,600,l),
(0,600,l)
);
}
);
width = 500;
}
);
unicode = 170;
},
{
glyphname = guillemetleft;
lastChange = "2024-07-09 21:52:22 +0000";
layers = (
{
layerId = m01;
shapes = (
{
closed = 1;
nodes = (
(300,0,l),
(300,100,l),
(200,100,l),
(200,0,l)
);
},
{
closed = 1;
nodes = (
(200,100,l),
(200,200,l),
(100,200,l),
(100,100,l)
);
},
{
closed = 1;
nodes = (
(100,200,l),
(100,300,l),
(0,300,l),
(0,200,l)
);
},
{
closed = 1;
nodes = (
(200,300,l),
(200,400,l),
(100,400,l),
(100,300,l)
);
},
{
closed = 1;
nodes = (
(300,400,l),
(300,500,l),
(200,500,l),
(200,400,l)
);
},
{
closed = 1;
nodes = (
(400,400,l),
(400,300,l),
(500,300,l),
(500,400,l)
);
},
{
closed = 1;
nodes = (
(600,400,l),
(600,500,l),
(500,500,l),
(500,400,l)
);
},
{
closed = 1;
nodes = (
(300,300,l),
(300,200,l),
(400,200,l),
(400,300,l)
);
},
{
closed = 1;
nodes = (
(500,100,l),
(500,200,l),
(400,200,l),
(400,100,l)
);
},
{
closed = 1;
nodes = (
(600,0,l),
(600,100,l),
(500,100,l),
(500,0,l)
);
}
);
width = 800;
}
);
unicode = 171;
},
{
glyphname = logicalnot;
lastChange = "2024-07-09 21:43:38 +0000";
layers = (
{
layerId = m01;
shapes = (
{
closed = 1;
nodes = (
(300,300,l),
(300,100,l),
(400,100,l),
(400,400,l),
(0,400,l),
(0,300,l)
);
}
);
width = 500;
}
);
unicode = 172;
},
{
glyphname = registered;
lastChange = "2024-07-09 21:43:44 +0000";
layers = (
{
layerId = m01;
shapes = (
{
closed = 1;
nodes = (
(200,100,l),
(200,200,l),
(100,200,l),
(100,100,l)
);
},
{
closed = 1;
nodes = (
(100,200,l),
(100,600,l),
(0,600,l),
(0,200,l)
);
},
{
closed = 1;
nodes = (
(200,600,l),
(200,700,l),
(100,700,l),
(100,600,l)
);
},
{
closed = 1;
nodes = (
(600,700,l),
(600,800,l),
(200,800,l),
(200,700,l)
);
},
{
closed = 1;
nodes = (
(700,600,l),
(700,700,l),
(600,700,l),
(600,600,l)
);
},
{
closed = 1;
nodes = (
(700,200,l),
(800,200,l),
(800,600,l),
(700,600,l)
);
},
{
closed = 1;
nodes = (
(600,200,l),
(600,100,l),
(700,100,l),
(700,200,l)
);
},
{
closed = 1;
nodes = (
(200,100,l),
(200,0,l),
(600,0,l),
(600,100,l)
);
},
{
closed = 1;
nodes = (
(300,200,l),
(300,300,l),
(500,300,l),
(500,400,l),
(300,400,l),
(300,500,l),
(500,500,l),
(500,600,l),
(200,600,l),
(200,200,l)
);
},
{
closed = 1;
nodes = (
(600,400,l),
(600,500,l),
(500,500,l),
(500,400,l)
);
},
{
closed = 1;
nodes = (
(600,200,l),
(600,300,l),
(500,300,l),
(500,200,l)
);
}
);
width = 900;
}
);
unicode = 174;
},
{
glyphname = degree;
lastChange = "2024-07-09 21:43:44 +0000";
layers = (
{
layerId = m01;
shapes = (
{
closed = 1;
nodes = (
(0,700,l),
(0,500,l),
(100,500,l),
(100,700,l)
);
},
{
closed = 1;
nodes = (
(300,700,l),
(300,800,l),
(100,800,l),
(100,700,l)
);
},
{
closed = 1;
nodes = (
(300,500,l),
(400,500,l),
(400,700,l),
(300,700,l)
);
},
{
closed = 1;
nodes = (
(100,500,l),
(100,400,l),
(300,400,l),
(300,500,l)
);
}
);
width = 500;
}
);
unicode = 176;
},
{
glyphname = plusminus;
lastChange = "2024-07-09 21:43:44 +0000";
layers = (
{
layerId = m01;
shapes = (
{
closed = 1;
nodes = (
(200,300,l),
(200,100,l),
(0,100,l),
(0,0,l),
(500,0,l),
(500,100,l),
(300,100,l),
(300,300,l),
(500,300,l),
(500,400,l),
(300,400,l),
(300,600,l),
(200,600,l),
(200,400,l),
(0,400,l),
(0,300,l)
);
}
);
width = 600;
}
);
unicode = 177;
},
{
glyphname = acute;
lastChange = "2024-07-09 21:50:59 +0000";
layers = (
{
layerId = m01;
shapes = (
{
closed = 1;
nodes = (
(200,500,l),
(200,600,l),
(100,600,l),
(100,500,l)
);
},
{
closed = 1;
nodes = (
(300,600,l),
(300,700,l),
(200,700,l),
(200,600,l)
);
}
);
width = 400;
}
);
unicode = 180;
},
{
glyphname = micro;
lastChange = "2024-07-09 21:43:44 +0000";
layers = (
{
layerId = m01;
shapes = (
{
closed = 1;
nodes = (
(0,-200,l),
(100,-200,l),
(100,0,l),
(300,0,l),
(300,100,l),
(100,100,l),
(100,600,l),
(0,600,l)
);
},
{
closed = 1;
nodes = (
(500,0,l),
(500,100,l),
(400,100,l),
(400,0,l)
);
},
{
closed = 1;
nodes = (
(400,100,l),
(400,600,l),
(300,600,l),
(300,100,l)
);
}
);
width = 600;
}
);
unicode = 181;
},
{
glyphname = paragraph;
lastChange = "2024-07-09 21:43:44 +0000";
layers = (
{
layerId = m01;
shapes = (
{
closed = 1;
nodes = (
(500,0,l),
(500,700,l),
(100,700,l),
(100,600,l),
(200,600,l),
(200,300,l),
(100,300,l),
(100,200,l),
(200,200,l),
(200,0,l),
(300,0,l),
(300,200,l),
(400,200,l),
(400,0,l)
);
},
{
closed = 1;
nodes = (
(300,300,l),
(300,600,l),
(400,600,l),
(400,300,l)
);
},
{
closed = 1;
nodes = (
(100,300,l),
(100,600,l),
(0,600,l),
(0,300,l)
);
}
);
width = 600;
}
);
unicode = 182;
},
{
glyphname = ordmasculine;
lastChange = "2024-07-09 21:43:44 +0000";
layers = (
{
layerId = m01;
shapes = (
{
closed = 1;
nodes = (
(400,100,l),
(400,200,l),
(0,200,l),
(0,100,l)
);
},
{
closed = 1;
nodes = (
(300,300,l),
(300,400,l),
(100,400,l),
(100,300,l)
);
},
{
closed = 1;
nodes = (
(100,400,l),
(100,600,l),
(0,600,l),
(0,400,l)
);
},
{
closed = 1;
nodes = (
(300,600,l),
(300,700,l),
(100,700,l),
(100,600,l)
);
},
{
closed = 1;
nodes = (
(300,400,l),
(400,400,l),
(400,600,l),
(300,600,l)
);
}
);
width = 500;
}
);
unicode = 186;
},
{
glyphname = guillemetright;
lastChange = "2024-07-09 21:52:20 +0000";
layers = (
{
layerId = m01;
shapes = (
{
closed = 1;
nodes = (
(200,0,l),
(200,100,l),
(100,100,l),
(100,0,l)
);
},
{
closed = 1;
nodes = (
(300,100,l),
(300,200,l),
(200,200,l),
(200,100,l)
);
},
{
closed = 1;
nodes = (
(400,200,l),
(400,300,l),
(300,300,l),
(300,200,l)
);
},
{
closed = 1;
nodes = (
(300,300,l),
(300,400,l),
(200,400,l),
(200,300,l)
);
},
{
closed = 1;
nodes = (
(200,400,l),
(200,500,l),
(100,500,l),
(100,400,l)
);
},
{
closed = 1;
nodes = (
(500,400,l),
(500,500,l),
(400,500,l),
(400,400,l)
);
},
{
closed = 1;
nodes = (
(600,300,l),
(600,400,l),
(500,400,l),
(500,300,l)
);
},
{
closed = 1;
nodes = (
(500,200,l),
(500,100,l),
(600,100,l),
(600,200,l)
);
},
{
closed = 1;
nodes = (
(700,200,l),
(700,300,l),
(600,300,l),
(600,200,l)
);
},
{
closed = 1;
nodes = (
(500,0,l),
(500,100,l),
(400,100,l),
(400,0,l)
);
}
);
width = 800;
}
);
unicode = 187;
},
{
glyphname = questiondown;
lastChange = "2024-07-09 21:59:39 +0000";
layers = (
{
layerId = m01;
shapes = (
{
closed = 1;
nodes = (
(200,100,l),
(200,0,l),
(400,0,l),
(400,100,l)
);
},
{
closed = 1;
nodes = (
(500,100,l),
(500,200,l),
(400,200,l),
(400,100,l)
);
},
{
closed = 1;
nodes = (
(200,100,l),
(200,300,l),
(100,300,l),
(100,100,l)
);
},
{
closed = 1;
nodes = (
(300,300,l),
(300,400,l),
(200,400,l),
(200,300,l)
);
},
{
closed = 1;
nodes = (
(400,400,l),
(400,500,l),
(300,500,l),
(300,400,l)
);
},
{
closed = 1;
nodes = (
(400,600,l),
(400,700,l),
(300,700,l),
(300,600,l)
);
}
);
width = 600;
}
);
unicode = 191;
},
{
glyphname = Agrave;
lastChange = "2024-07-09 21:52:36 +0000";
layers = (
{
layerId = m01;
shapes = (
{
closed = 1;
nodes = (
(200,0,l),
(200,200,l),
(500,200,l),
(500,0,l),
(600,0,l),
(600,300,l),
(500,300,l),
(500,500,l),
(400,500,l),
(400,300,l),
(300,300,l),
(300,500,l),
(200,500,l),
(200,300,l),
(100,300,l),
(100,0,l)
);
},
{
closed = 1;
nodes = (
(400,500,l),
(400,700,l),
(300,700,l),
(300,500,l)
);
},
{
closed = 1;
nodes = (
(500,700,l),
(500,800,l),
(400,800,l),
(400,700,l)
);
},
{
closed = 1;
nodes = (
(400,800,l),
(400,900,l),
(300,900,l),
(300,800,l)
);
}
);
width = 700;
}
);
unicode = 192;
},
{
glyphname = Atilde;
lastChange = "2024-07-09 21:52:36 +0000";
layers = (
{
layerId = m01;
shapes = (
{
closed = 1;
nodes = (
(200,0,l),
(200,200,l),
(500,200,l),
(500,0,l),
(600,0,l),
(600,300,l),
(500,300,l),
(500,500,l),
(400,500,l),
(400,300,l),
(300,300,l),
(300,500,l),
(200,500,l),
(200,300,l),
(100,300,l),
(100,0,l)
);
},
{
closed = 1;
nodes = (
(400,500,l),
(400,700,l),
(300,700,l),
(300,500,l)
);
},
{
closed = 1;
nodes = (
(200,800,l),
(200,900,l),
(100,900,l),
(100,800,l)
);
},
{
closed = 1;
nodes = (
(300,900,l),
(300,800,l),
(500,800,l),
(500,900,l),
(400,900,l),
(400,1000,l),
(200,1000,l),
(200,900,l)
);
},
{
closed = 1;
nodes = (
(600,900,l),
(600,1000,l),
(500,1000,l),
(500,900,l)
);
}
);
width = 700;
}
);
unicode = 195;
},
{
glyphname = Adieresis;
lastChange = "2024-07-09 21:49:17 +0000";
layers = (
{
layerId = m01;
shapes = (
{
closed = 1;
nodes = (
(200,0,l),
(200,200,l),
(500,200,l),
(500,0,l),
(600,0,l),
(600,300,l),
(500,300,l),
(500,500,l),
(400,500,l),
(400,300,l),
(300,300,l),
(300,500,l),
(200,500,l),
(200,300,l),
(100,300,l),
(100,0,l)
);
},
{
closed = 1;
nodes = (
(400,500,l),
(400,700,l),
(300,700,l),
(300,500,l)
);
},
{
closed = 1;
nodes = (
(500,800,l),
(500,900,l),
(400,900,l),
(400,800,l)
);
},
{
closed = 1;
nodes = (
(300,800,l),
(300,900,l),
(200,900,l),
(200,800,l)
);
}
);
width = 700;
}
);
unicode = 196;
},
{
glyphname = Aring;
lastChange = "2024-07-09 21:49:19 +0000";
layers = (
{
layerId = m01;
shapes = (
{
closed = 1;
nodes = (
(200,0,l),
(200,200,l),
(500,200,l),
(500,0,l),
(600,0,l),
(600,300,l),
(500,300,l),
(500,500,l),
(400,500,l),
(400,300,l),
(300,300,l),
(300,500,l),
(200,500,l),
(200,300,l),
(100,300,l),
(100,0,l)
);
},
{
closed = 1;
nodes = (
(400,500,l),
(400,700,l),
(500,700,l),
(500,800,l),
(200,800,l),
(200,700,l),
(300,700,l),
(300,500,l)
);
},
{
closed = 1;
nodes = (
(600,800,l),
(600,900,l),
(500,900,l),
(500,800,l)
);
},
{
closed = 1;
nodes = (
(500,900,l),
(500,1000,l),
(200,1000,l),
(200,900,l)
);
},
{
closed = 1;
nodes = (
(100,900,l),
(100,800,l),
(200,800,l),
(200,900,l)
);
}
);
width = 700;
}
);
unicode = 197;
},
{
glyphname = AE;
lastChange = "2024-07-09 21:43:44 +0000";
layers = (
{
layerId = m01;
shapes = (
{
closed = 1;
nodes = (
(100,0,l),
(100,200,l),
(0,200,l),
(0,0,l)
);
},
{
closed = 1;
nodes = (
(200,200,l),
(200,300,l),
(400,300,l),
(400,0,l),
(800,0,l),
(800,100,l),
(500,100,l),
(500,300,l),
(700,300,l),
(700,400,l),
(500,400,l),
(500,600,l),
(800,600,l),
(800,700,l),
(300,700,l),
(300,600,l),
(400,600,l),
(400,400,l),
(300,400,l),
(300,600,l),
(200,600,l),
(200,400,l),
(100,400,l),
(100,200,l)
);
}
);
width = 900;
}
);
unicode = 198;
},
{
glyphname = Ccedilla;
lastChange = "2024-07-09 21:43:38 +0000";
layers = (
{
layerId = m01;
shapes = (
{
closed = 1;
nodes = (
(0,100,l),
(100,100,l),
(100,600,l),
(0,600,l)
);
},
{
closed = 1;
nodes = (
(200,0,l),
(200,-100,l),
(300,-100,l),
(300,0,l),
(400,0,l),
(400,100,l),
(100,100,l),
(100,0,l)
);
},
{
closed = 1;
nodes = (
(500,100,l),
(500,200,l),
(400,200,l),
(400,100,l)
);
},
{
closed = 1;
nodes = (
(500,500,l),
(500,600,l),
(400,600,l),
(400,500,l)
);
},
{
closed = 1;
nodes = (
(400,600,l),
(400,700,l),
(100,700,l),
(100,600,l)
);
},
{
closed = 1;
nodes = (
(100,-100,l),
(100,-200,l),
(200,-200,l),
(200,-100,l)
);
}
);
width = 600;
}
);
unicode = 199;
},
{
glyphname = Eacute;
lastChange = "2024-07-09 21:43:44 +0000";
layers = (
{
layerId = m01;
shapes = (
{
closed = 1;
nodes = (
(0,0,l),
(400,0,l),
(400,100,l),
(100,100,l),
(100,300,l),
(300,300,l),
(300,400,l),
(100,400,l),
(100,600,l),
(400,600,l),
(400,700,l),
(0,700,l)
);
},
{
closed = 1;
nodes = (
(200,800,l),
(200,900,l),
(100,900,l),
(100,800,l)
);
},
{
closed = 1;
nodes = (
(300,900,l),
(300,1000,l),
(200,1000,l),
(200,900,l)
);
}
);
width = 500;
}
);
unicode = 201;
},
{
glyphname = Ntilde;
lastChange = "2024-07-09 21:43:38 +0000";
layers = (
{
layerId = m01;
shapes = (
{
closed = 1;
nodes = (
(100,0,l),
(100,500,l),
(200,500,l),
(200,700,l),
(0,700,l),
(0,0,l)
);
},
{
closed = 1;
nodes = (
(200,300,l),
(300,300,l),
(300,500,l),
(200,500,l)
);
},
{
closed = 1;
nodes = (
(300,100,l),
(400,100,l),
(400,0,l),
(500,0,l),
(500,700,l),
(400,700,l),
(400,300,l),
(300,300,l)
);
},
{
closed = 1;
nodes = (
(100,800,l),
(100,900,l),
(0,900,l),
(0,800,l)
);
},
{
closed = 1;
nodes = (
(200,900,l),
(200,800,l),
(400,800,l),
(400,900,l),
(300,900,l),
(300,1000,l),
(100,1000,l),
(100,900,l)
);
},
{
closed = 1;
nodes = (
(500,900,l),
(500,1000,l),
(400,1000,l),
(400,900,l)
);
}
);
width = 600;
}
);
unicode = 209;
},
{
glyphname = Otilde;
lastChange = "2024-07-09 21:43:38 +0000";
layers = (
{
layerId = m01;
shapes = (
{
closed = 1;
nodes = (
(100,100,l),
(100,600,l),
(0,600,l),
(0,100,l)
);
},
{
closed = 1;
nodes = (
(400,600,l),
(400,700,l),
(100,700,l),
(100,600,l)
);
},
{
closed = 1;
nodes = (
(400,100,l),
(500,100,l),
(500,600,l),
(400,600,l)
);
},
{
closed = 1;
nodes = (
(100,100,l),
(100,0,l),
(400,0,l),
(400,100,l)
);
},
{
closed = 1;
nodes = (
(400,800,l),
(400,900,l),
(300,900,l),
(300,1000,l),
(100,1000,l),
(100,900,l),
(200,900,l),
(200,800,l)
);
},
{
closed = 1;
nodes = (
(0,900,l),
(0,800,l),
(100,800,l),
(100,900,l)
);
},
{
closed = 1;
nodes = (
(500,900,l),
(500,1000,l),
(400,1000,l),
(400,900,l)
);
}
);
width = 600;
}
);
unicode = 213;
},
{
glyphname = Odieresis;
lastChange = "2024-07-09 21:43:38 +0000";
layers = (
{
layerId = m01;
shapes = (
{
closed = 1;
nodes = (
(100,100,l),
(100,600,l),
(0,600,l),
(0,100,l)
);
},
{
closed = 1;
nodes = (
(400,600,l),
(400,700,l),
(100,700,l),
(100,600,l)
);
},
{
closed = 1;
nodes = (
(400,100,l),
(500,100,l),
(500,600,l),
(400,600,l)
);
},
{
closed = 1;
nodes = (
(100,100,l),
(100,0,l),
(400,0,l),
(400,100,l)
);
},
{
closed = 1;
nodes = (
(200,800,l),
(200,900,l),
(100,900,l),
(100,800,l)
);
},
{
closed = 1;
nodes = (
(400,800,l),
(400,900,l),
(300,900,l),
(300,800,l)
);
}
);
width = 600;
}
);
unicode = 214;
},
{
glyphname = Oslash;
lastChange = "2024-07-09 21:59:10 +0000";
layers = (
{
layerId = m01;
shapes = (
{
closed = 1;
nodes = (
(100,0,l),
(100,100,l),
(0,100,l),
(0,0,l)
);
},
{
closed = 1;
nodes = (
(200,100,l),
(200,200,l),
(300,200,l),
(300,300,l),
(200,300,l),
(200,600,l),
(100,600,l),
(100,100,l)
);
},
{
closed = 1;
nodes = (
(500,600,l),
(500,700,l),
(200,700,l),
(200,600,l)
);
},
{
closed = 1;
nodes = (
(400,500,l),
(400,400,l),
(500,400,l),
(500,100,l),
(600,100,l),
(600,600,l),
(500,600,l),
(500,500,l)
);
},
{
closed = 1;
nodes = (
(200,100,l),
(200,0,l),
(500,0,l),
(500,100,l)
);
},
{
closed = 1;
nodes = (
(700,600,l),
(700,700,l),
(600,700,l),
(600,600,l)
);
},
{
closed = 1;
nodes = (
(300,400,l),
(300,300,l),
(400,300,l),
(400,400,l)
);
}
);
width = 700;
}
);
unicode = 216;
},
{
glyphname = Udieresis;
lastChange = "2024-07-09 21:43:38 +0000";
layers = (
{
layerId = m01;
shapes = (
{
closed = 1;
nodes = (
(0,100,l),
(100,100,l),
(100,700,l),
(0,700,l)
);
},
{
closed = 1;
nodes = (
(400,0,l),
(400,100,l),
(100,100,l),
(100,0,l)
);
},
{
closed = 1;
nodes = (
(500,100,l),
(500,700,l),
(400,700,l),
(400,100,l)
);
},
{
closed = 1;
nodes = (
(200,800,l),
(200,900,l),
(100,900,l),
(100,800,l)
);
},
{
closed = 1;
nodes = (
(400,800,l),
(400,900,l),
(300,900,l),
(300,800,l)
);
}
);
width = 600;
}
);
unicode = 220;
},
{
glyphname = germandbls;
lastChange = "2024-07-09 21:43:44 +0000";
layers = (
{
layerId = m01;
shapes = (
{
closed = 1;
nodes = (
(100,0,l),
(100,600,l),
(0,600,l),
(0,0,l)
);
},
{
closed = 1;
nodes = (
(400,600,l),
(400,700,l),
(100,700,l),
(100,600,l)
);
},
{
closed = 1;
nodes = (
(400,400,l),
(500,400,l),
(500,600,l),
(400,600,l)
);
},
{
closed = 1;
nodes = (
(200,400,l),
(200,300,l),
(400,300,l),
(400,400,l)
);
},
{
closed = 1;
nodes = (
(400,100,l),
(500,100,l),
(500,300,l),
(400,300,l)
);
},
{
closed = 1;
nodes = (
(200,100,l),
(200,0,l),
(400,0,l),
(400,100,l)
);
}
);
width = 600;
}
);
unicode = 223;
},
{
glyphname = agrave;
lastChange = "2024-07-09 21:43:38 +0000";
layers = (
{
layerId = m01;
shapes = (
{
closed = 1;
nodes = (
(0,100,l),
(100,100,l),
(100,400,l),
(0,400,l)
);
},
{
closed = 1;
nodes = (
(400,0,l),
(400,500,l),
(100,500,l),
(100,400,l),
(300,400,l),
(300,100,l),
(100,100,l),
(100,0,l)
);
},
{
closed = 1;
nodes = (
(300,600,l),
(300,700,l),
(200,700,l),
(200,600,l)
);
},
{
closed = 1;
nodes = (
(200,700,l),
(200,800,l),
(100,800,l),
(100,700,l)
);
}
);
width = 500;
}
);
unicode = 224;
},
{
glyphname = aacute;
lastChange = "2024-07-09 21:43:44 +0000";
layers = (
{
layerId = m01;
shapes = (
{
closed = 1;
nodes = (
(100,100,l),
(100,400,l),
(0,400,l),
(0,100,l)
);
},
{
closed = 1;
nodes = (
(300,400,l),
(300,100,l),
(100,100,l),
(100,0,l),
(400,0,l),
(400,500,l),
(100,500,l),
(100,400,l)
);
},
{
closed = 1;
nodes = (
(200,600,l),
(200,700,l),
(100,700,l),
(100,600,l)
);
},
{
closed = 1;
nodes = (
(300,700,l),
(300,800,l),
(200,800,l),
(200,700,l)
);
}
);
width = 500;
}
);
unicode = 225;
},
{
glyphname = acircumflex;
lastChange = "2024-07-09 21:43:38 +0000";
layers = (
{
layerId = m01;
shapes = (
{
closed = 1;
nodes = (
(0,100,l),
(100,100,l),
(100,400,l),
(0,400,l)
);
},
{
closed = 1;
nodes = (
(400,0,l),
(400,500,l),
(100,500,l),
(100,400,l),
(300,400,l),
(300,100,l),
(100,100,l),
(100,0,l)
);
},
{
closed = 1;
nodes = (
(200,600,l),
(200,700,l),
(100,700,l),
(100,600,l)
);
},
{
closed = 1;
nodes = (
(300,700,l),
(300,800,l),
(200,800,l),
(200,700,l)
);
},
{
closed = 1;
nodes = (
(400,600,l),
(400,700,l),
(300,700,l),
(300,600,l)
);
}
);
width = 500;
}
);
unicode = 226;
},
{
glyphname = atilde;
lastChange = "2024-07-09 21:43:44 +0000";
layers = (
{
layerId = m01;
shapes = (
{
closed = 1;
nodes = (
(0,100,l),
(100,100,l),
(100,400,l),
(0,400,l)
);
},
{
closed = 1;
nodes = (
(100,100,l),
(100,0,l),
(400,0,l),
(400,500,l),
(100,500,l),
(100,400,l),
(300,400,l),
(300,100,l)
);
},
{
closed = 1;
nodes = (
(100,600,l),
(100,700,l),
(0,700,l),
(0,600,l)
);
},
{
closed = 1;
nodes = (
(200,700,l),
(200,800,l),
(100,800,l),
(100,700,l)
);
},
{
closed = 1;
nodes = (
(300,600,l),
(300,700,l),
(200,700,l),
(200,600,l)
);
},
{
closed = 1;
nodes = (
(400,700,l),
(400,800,l),
(300,800,l),
(300,700,l)
);
}
);
width = 500;
}
);
unicode = 227;
},
{
glyphname = adieresis;
lastChange = "2024-07-09 21:43:44 +0000";
layers = (
{
layerId = m01;
shapes = (
{
closed = 1;
nodes = (
(0,100,l),
(100,100,l),
(100,400,l),
(0,400,l)
);
},
{
closed = 1;
nodes = (
(400,0,l),
(400,500,l),
(100,500,l),
(100,400,l),
(300,400,l),
(300,100,l),
(100,100,l),
(100,0,l)
);
},
{
closed = 1;
nodes = (
(200,600,l),
(200,700,l),
(100,700,l),
(100,600,l)
);
},
{
closed = 1;
nodes = (
(400,600,l),
(400,700,l),
(300,700,l),
(300,600,l)
);
}
);
width = 500;
}
);
unicode = 228;
},
{
glyphname = aring;
lastChange = "2024-07-09 21:43:44 +0000";
layers = (
{
layerId = m01;
shapes = (
{
closed = 1;
nodes = (
(0,100,l),
(100,100,l),
(100,400,l),
(0,400,l)
);
},
{
closed = 1;
nodes = (
(400,0,l),
(400,500,l),
(100,500,l),
(100,400,l),
(300,400,l),
(300,100,l),
(100,100,l),
(100,0,l)
);
},
{
closed = 1;
nodes = (
(300,600,l),
(300,700,l),
(100,700,l),
(100,600,l)
);
},
{
closed = 1;
nodes = (
(400,700,l),
(400,800,l),
(300,800,l),
(300,700,l)
);
},
{
closed = 1;
nodes = (
(300,800,l),
(300,900,l),
(100,900,l),
(100,800,l)
);
},
{
closed = 1;
nodes = (
(0,800,l),
(0,700,l),
(100,700,l),
(100,800,l)
);
}
);
width = 500;
}
);
unicode = 229;
},
{
glyphname = ae;
lastChange = "2024-07-09 21:51:46 +0000";
layers = (
{
layerId = m01;
shapes = (
{
closed = 1;
nodes = (
(200,100,l),
(200,400,l),
(100,400,l),
(100,100,l)
);
},
{
closed = 1;
nodes = (
(400,400,l),
(400,100,l),
(200,100,l),
(200,0,l),
(700,0,l),
(700,100,l),
(500,100,l),
(500,200,l),
(800,200,l),
(800,400,l),
(700,400,l),
(700,300,l),
(500,300,l),
(500,400,l),
(700,400,l),
(700,500,l),
(200,500,l),
(200,400,l)
);
}
);
width = 900;
}
);
unicode = 230;
},
{
glyphname = ccedilla;
lastChange = "2024-07-09 21:43:44 +0000";
layers = (
{
layerId = m01;
shapes = (
{
closed = 1;
nodes = (
(200,0,l),
(200,-100,l),
(300,-100,l),
(300,100,l),
(100,100,l),
(100,0,l)
);
},
{
closed = 1;
nodes = (
(400,100,l),
(400,200,l),
(300,200,l),
(300,100,l)
);
},
{
closed = 1;
nodes = (
(400,300,l),
(400,400,l),
(300,400,l),
(300,300,l)
);
},
{
closed = 1;
nodes = (
(300,400,l),
(300,500,l),
(100,500,l),
(100,400,l)
);
},
{
closed = 1;
nodes = (
(0,400,l),
(0,100,l),
(100,100,l),
(100,400,l)
);
},
{
closed = 1;
nodes = (
(100,-100,l),
(100,-200,l),
(200,-200,l),
(200,-100,l)
);
}
);
width = 500;
}
);
unicode = 231;
},
{
glyphname = egrave;
lastChange = "2024-07-09 21:43:44 +0000";
layers = (
{
layerId = m01;
shapes = (
{
closed = 1;
nodes = (
(0,100,l),
(100,100,l),
(100,200,l),
(400,200,l),
(400,400,l),
(300,400,l),
(300,300,l),
(100,300,l),
(100,400,l),
(0,400,l)
);
},
{
closed = 1;
nodes = (
(300,0,l),
(300,100,l),
(100,100,l),
(100,0,l)
);
},
{
closed = 1;
nodes = (
(300,400,l),
(300,500,l),
(100,500,l),
(100,400,l)
);
},
{
closed = 1;
nodes = (
(300,600,l),
(300,700,l),
(200,700,l),
(200,600,l)
);
},
{
closed = 1;
nodes = (
(200,700,l),
(200,800,l),
(100,800,l),
(100,700,l)
);
}
);
width = 500;
}
);
unicode = 232;
},
{
glyphname = eacute;
lastChange = "2024-07-09 21:43:44 +0000";
layers = (
{
layerId = m01;
shapes = (
{
closed = 1;
nodes = (
(0,100,l),
(100,100,l),
(100,200,l),
(400,200,l),
(400,400,l),
(300,400,l),
(300,300,l),
(100,300,l),
(100,400,l),
(0,400,l)
);
},
{
closed = 1;
nodes = (
(400,0,l),
(400,100,l),
(100,100,l),
(100,0,l)
);
},
{
closed = 1;
nodes = (
(300,400,l),
(300,500,l),
(100,500,l),
(100,400,l)
);
},
{
closed = 1;
nodes = (
(200,600,l),
(200,700,l),
(100,700,l),
(100,600,l)
);
},
{
closed = 1;
nodes = (
(300,700,l),
(300,800,l),
(200,800,l),
(200,700,l)
);
}
);
width = 500;
}
);
unicode = 233;
},
{
glyphname = ecircumflex;
lastChange = "2024-07-09 21:43:44 +0000";
layers = (
{
layerId = m01;
shapes = (
{
closed = 1;
nodes = (
(0,100,l),
(100,100,l),
(100,200,l),
(400,200,l),
(400,400,l),
(300,400,l),
(300,300,l),
(100,300,l),
(100,400,l),
(0,400,l)
);
},
{
closed = 1;
nodes = (
(300,0,l),
(300,100,l),
(100,100,l),
(100,0,l)
);
},
{
closed = 1;
nodes = (
(300,400,l),
(300,500,l),
(100,500,l),
(100,400,l)
);
},
{
closed = 1;
nodes = (
(300,600,l),
(300,700,l),
(200,700,l),
(200,600,l)
);
},
{
closed = 1;
nodes = (
(0,700,l),
(0,600,l),
(100,600,l),
(100,700,l)
);
},
{
closed = 1;
nodes = (
(200,700,l),
(200,800,l),
(100,800,l),
(100,700,l)
);
}
);
width = 500;
}
);
unicode = 234;
},
{
glyphname = edieresis;
lastChange = "2024-07-09 21:43:44 +0000";
layers = (
{
layerId = m01;
shapes = (
{
closed = 1;
nodes = (
(0,100,l),
(100,100,l),
(100,200,l),
(400,200,l),
(400,400,l),
(300,400,l),
(300,300,l),
(100,300,l),
(100,400,l),
(0,400,l)
);
},
{
closed = 1;
nodes = (
(400,0,l),
(400,100,l),
(100,100,l),
(100,0,l)
);
},
{
closed = 1;
nodes = (
(300,400,l),
(300,500,l),
(100,500,l),
(100,400,l)
);
},
{
closed = 1;
nodes = (
(100,600,l),
(100,700,l),
(0,700,l),
(0,600,l)
);
},
{
closed = 1;
nodes = (
(400,600,l),
(400,700,l),
(300,700,l),
(300,600,l)
);
}
);
width = 500;
}
);
unicode = 235;
},
{
glyphname = igrave;
lastChange = "2024-07-09 21:43:44 +0000";
layers = (
{
layerId = m01;
shapes = (
{
closed = 1;
nodes = (
(200,0,l),
(200,500,l),
(0,500,l),
(0,400,l),
(100,400,l),
(100,0,l)
);
},
{
closed = 1;
nodes = (
(200,600,l),
(200,700,l),
(100,700,l),
(100,600,l)
);
},
{
closed = 1;
nodes = (
(100,700,l),
(100,800,l),
(0,800,l),
(0,700,l)
);
}
);
width = 300;
}
);
unicode = 236;
},
{
glyphname = iacute;
lastChange = "2024-07-09 21:43:44 +0000";
layers = (
{
layerId = m01;
shapes = (
{
closed = 1;
nodes = (
(200,0,l),
(200,500,l),
(0,500,l),
(0,400,l),
(100,400,l),
(100,0,l)
);
},
{
closed = 1;
nodes = (
(100,600,l),
(100,700,l),
(0,700,l),
(0,600,l)
);
},
{
closed = 1;
nodes = (
(200,700,l),
(200,800,l),
(100,800,l),
(100,700,l)
);
}
);
width = 300;
}
);
unicode = 237;
},
{
glyphname = icircumflex;
lastChange = "2024-07-09 21:43:44 +0000";
layers = (
{
layerId = m01;
shapes = (
{
closed = 1;
nodes = (
(200,0,l),
(200,500,l),
(0,500,l),
(0,400,l),
(100,400,l),
(100,0,l)
);
},
{
closed = 1;
nodes = (
(100,600,l),
(100,700,l),
(0,700,l),
(0,600,l)
);
},
{
closed = 1;
nodes = (
(300,600,l),
(300,700,l),
(200,700,l),
(200,600,l)
);
},
{
closed = 1;
nodes = (
(200,700,l),
(200,800,l),
(100,800,l),
(100,700,l)
);
}
);
width = 400;
}
);
unicode = 238;
},
{
glyphname = idieresis;
lastChange = "2024-07-09 21:43:44 +0000";
layers = (
{
layerId = m01;
shapes = (
{
closed = 1;
nodes = (
(200,0,l),
(200,500,l),
(0,500,l),
(0,400,l),
(100,400,l),
(100,0,l)
);
},
{
closed = 1;
nodes = (
(100,600,l),
(100,700,l),
(0,700,l),
(0,600,l)
);
},
{
closed = 1;
nodes = (
(300,600,l),
(300,700,l),
(200,700,l),
(200,600,l)
);
}
);
width = 400;
}
);
unicode = 239;
},
{
glyphname = ntilde;
lastChange = "2024-07-09 21:43:44 +0000";
layers = (
{
layerId = m01;
shapes = (
{
closed = 1;
nodes = (
(100,0,l),
(100,400,l),
(300,400,l),
(300,500,l),
(0,500,l),
(0,0,l)
);
},
{
closed = 1;
nodes = (
(300,0,l),
(400,0,l),
(400,400,l),
(300,400,l)
);
},
{
closed = 1;
nodes = (
(100,600,l),
(100,700,l),
(0,700,l),
(0,600,l)
);
},
{
closed = 1;
nodes = (
(200,700,l),
(200,800,l),
(100,800,l),
(100,700,l)
);
},
{
closed = 1;
nodes = (
(300,600,l),
(300,700,l),
(200,700,l),
(200,600,l)
);
},
{
closed = 1;
nodes = (
(400,700,l),
(400,800,l),
(300,800,l),
(300,700,l)
);
}
);
width = 500;
}
);
unicode = 241;
},
{
glyphname = ograve;
lastChange = "2024-07-09 21:43:44 +0000";
layers = (
{
layerId = m01;
shapes = (
{
closed = 1;
nodes = (
(0,100,l),
(100,100,l),
(100,400,l),
(0,400,l)
);
},
{
closed = 1;
nodes = (
(300,0,l),
(300,100,l),
(100,100,l),
(100,0,l)
);
},
{
closed = 1;
nodes = (
(400,100,l),
(400,400,l),
(300,400,l),
(300,100,l)
);
},
{
closed = 1;
nodes = (
(300,400,l),
(300,500,l),
(100,500,l),
(100,400,l)
);
},
{
closed = 1;
nodes = (
(300,600,l),
(300,700,l),
(200,700,l),
(200,600,l)
);
},
{
closed = 1;
nodes = (
(200,700,l),
(200,800,l),
(100,800,l),
(100,700,l)
);
}
);
width = 500;
}
);
unicode = 242;
},
{
glyphname = oacute;
lastChange = "2024-07-09 21:43:44 +0000";
layers = (
{
layerId = m01;
shapes = (
{
closed = 1;
nodes = (
(0,100,l),
(100,100,l),
(100,400,l),
(0,400,l)
);
},
{
closed = 1;
nodes = (
(300,0,l),
(300,100,l),
(100,100,l),
(100,0,l)
);
},
{
closed = 1;
nodes = (
(400,100,l),
(400,400,l),
(300,400,l),
(300,100,l)
);
},
{
closed = 1;
nodes = (
(300,400,l),
(300,500,l),
(100,500,l),
(100,400,l)
);
},
{
closed = 1;
nodes = (
(200,600,l),
(200,700,l),
(100,700,l),
(100,600,l)
);
},
{
closed = 1;
nodes = (
(300,700,l),
(300,800,l),
(200,800,l),
(200,700,l)
);
}
);
width = 500;
}
);
unicode = 243;
},
{
glyphname = ocircumflex;
lastChange = "2024-07-09 21:43:44 +0000";
layers = (
{
layerId = m01;
shapes = (
{
closed = 1;
nodes = (
(0,100,l),
(100,100,l),
(100,400,l),
(0,400,l)
);
},
{
closed = 1;
nodes = (
(300,0,l),
(300,100,l),
(100,100,l),
(100,0,l)
);
},
{
closed = 1;
nodes = (
(400,100,l),
(400,400,l),
(300,400,l),
(300,100,l)
);
},
{
closed = 1;
nodes = (
(300,400,l),
(300,500,l),
(100,500,l),
(100,400,l)
);
},
{
closed = 1;
nodes = (
(300,600,l),
(300,700,l),
(200,700,l),
(200,600,l)
);
},
{
closed = 1;
nodes = (
(0,700,l),
(0,600,l),
(100,600,l),
(100,700,l)
);
},
{
closed = 1;
nodes = (
(200,700,l),
(200,800,l),
(100,800,l),
(100,700,l)
);
}
);
width = 500;
}
);
unicode = 244;
},
{
glyphname = otilde;
lastChange = "2024-07-09 21:43:44 +0000";
layers = (
{
layerId = m01;
shapes = (
{
closed = 1;
nodes = (
(0,100,l),
(100,100,l),
(100,400,l),
(0,400,l)
);
},
{
closed = 1;
nodes = (
(300,0,l),
(300,100,l),
(100,100,l),
(100,0,l)
);
},
{
closed = 1;
nodes = (
(400,100,l),
(400,400,l),
(300,400,l),
(300,100,l)
);
},
{
closed = 1;
nodes = (
(300,400,l),
(300,500,l),
(100,500,l),
(100,400,l)
);
},
{
closed = 1;
nodes = (
(100,600,l),
(100,700,l),
(0,700,l),
(0,600,l)
);
},
{
closed = 1;
nodes = (
(200,700,l),
(200,800,l),
(100,800,l),
(100,700,l)
);
},
{
closed = 1;
nodes = (
(300,600,l),
(300,700,l),
(200,700,l),
(200,600,l)
);
},
{
closed = 1;
nodes = (
(400,700,l),
(400,800,l),
(300,800,l),
(300,700,l)
);
}
);
width = 500;
}
);
unicode = 245;
},
{
glyphname = odieresis;
lastChange = "2024-07-09 21:43:44 +0000";
layers = (
{
layerId = m01;
shapes = (
{
closed = 1;
nodes = (
(0,100,l),
(100,100,l),
(100,400,l),
(0,400,l)
);
},
{
closed = 1;
nodes = (
(300,0,l),
(300,100,l),
(100,100,l),
(100,0,l)
);
},
{
closed = 1;
nodes = (
(400,100,l),
(400,400,l),
(300,400,l),
(300,100,l)
);
},
{
closed = 1;
nodes = (
(300,400,l),
(300,500,l),
(100,500,l),
(100,400,l)
);
},
{
closed = 1;
nodes = (
(100,600,l),
(100,700,l),
(0,700,l),
(0,600,l)
);
},
{
closed = 1;
nodes = (
(400,600,l),
(400,700,l),
(300,700,l),
(300,600,l)
);
}
);
width = 500;
}
);
unicode = 246;
},
{
glyphname = divide;
lastChange = "2024-07-09 21:43:44 +0000";
layers = (
{
layerId = m01;
shapes = (
{
closed = 1;
nodes = (
(300,500,l),
(300,600,l),
(200,600,l),
(200,500,l)
);
},
{
closed = 1;
nodes = (
(500,300,l),
(500,400,l),
(0,400,l),
(0,300,l)
);
},
{
closed = 1;
nodes = (
(300,100,l),
(300,200,l),
(200,200,l),
(200,100,l)
);
}
);
width = 600;
}
);
unicode = 247;
},
{
glyphname = oslash;
lastChange = "2024-07-09 21:51:11 +0000";
layers = (
{
layerId = m01;
shapes = (
{
closed = 1;
nodes = (
(100,0,l),
(100,100,l),
(0,100,l),
(0,0,l)
);
},
{
closed = 1;
nodes = (
(200,100,l),
(200,200,l),
(300,200,l),
(300,300,l),
(200,300,l),
(200,500,l),
(100,500,l),
(100,100,l)
);
},
{
closed = 1;
nodes = (
(400,500,l),
(400,600,l),
(200,600,l),
(200,500,l)
);
},
{
closed = 1;
nodes = (
(300,400,l),
(300,300,l),
(400,300,l),
(400,100,l),
(500,100,l),
(500,500,l),
(400,500,l),
(400,400,l)
);
},
{
closed = 1;
nodes = (
(200,100,l),
(200,0,l),
(400,0,l),
(400,100,l)
);
},
{
closed = 1;
nodes = (
(600,500,l),
(600,600,l),
(500,600,l),
(500,500,l)
);
}
);
width = 600;
}
);
unicode = 248;
},
{
glyphname = ugrave;
lastChange = "2024-07-09 21:43:44 +0000";
layers = (
{
layerId = m01;
shapes = (
{
closed = 1;
nodes = (
(0,100,l),
(100,100,l),
(100,500,l),
(0,500,l)
);
},
{
closed = 1;
nodes = (
(400,0,l),
(400,500,l),
(300,500,l),
(300,100,l),
(100,100,l),
(100,0,l)
);
},
{
closed = 1;
nodes = (
(300,600,l),
(300,700,l),
(200,700,l),
(200,600,l)
);
},
{
closed = 1;
nodes = (
(200,700,l),
(200,800,l),
(100,800,l),
(100,700,l)
);
}
);
width = 500;
}
);
unicode = 249;
},
{
glyphname = uacute;
lastChange = "2024-07-09 21:43:44 +0000";
layers = (
{
layerId = m01;
shapes = (
{
closed = 1;
nodes = (
(0,100,l),
(100,100,l),
(100,500,l),
(0,500,l)
);
},
{
closed = 1;
nodes = (
(400,0,l),
(400,500,l),
(300,500,l),
(300,100,l),
(100,100,l),
(100,0,l)
);
},
{
closed = 1;
nodes = (
(200,600,l),
(200,700,l),
(100,700,l),
(100,600,l)
);
},
{
closed = 1;
nodes = (
(300,700,l),
(300,800,l),
(200,800,l),
(200,700,l)
);
}
);
width = 500;
}
);
unicode = 250;
},
{
glyphname = ucircumflex;
lastChange = "2024-07-09 21:43:44 +0000";
layers = (
{
layerId = m01;
shapes = (
{
closed = 1;
nodes = (
(0,100,l),
(100,100,l),
(100,500,l),
(0,500,l)
);
},
{
closed = 1;
nodes = (
(400,0,l),
(400,500,l),
(300,500,l),
(300,100,l),
(100,100,l),
(100,0,l)
);
},
{
closed = 1;
nodes = (
(100,600,l),
(100,700,l),
(0,700,l),
(0,600,l)
);
},
{
closed = 1;
nodes = (
(200,700,l),
(200,800,l),
(100,800,l),
(100,700,l)
);
},
{
closed = 1;
nodes = (
(300,600,l),
(300,700,l),
(200,700,l),
(200,600,l)
);
}
);
width = 500;
}
);
unicode = 251;
},
{
glyphname = udieresis;
lastChange = "2024-07-09 21:43:44 +0000";
layers = (
{
layerId = m01;
shapes = (
{
closed = 1;
nodes = (
(0,100,l),
(100,100,l),
(100,500,l),
(0,500,l)
);
},
{
closed = 1;
nodes = (
(400,0,l),
(400,500,l),
(300,500,l),
(300,100,l),
(100,100,l),
(100,0,l)
);
},
{
closed = 1;
nodes = (
(100,600,l),
(100,700,l),
(0,700,l),
(0,600,l)
);
},
{
closed = 1;
nodes = (
(400,600,l),
(400,700,l),
(300,700,l),
(300,600,l)
);
}
);
width = 500;
}
);
unicode = 252;
},
{
glyphname = ydieresis;
lastChange = "2024-07-09 21:43:44 +0000";
layers = (
{
layerId = m01;
shapes = (
{
closed = 1;
nodes = (
(0,100,l),
(100,100,l),
(100,500,l),
(0,500,l)
);
},
{
closed = 1;
nodes = (
(400,0,l),
(400,-100,l),
(500,-100,l),
(500,500,l),
(400,500,l),
(400,100,l),
(100,100,l),
(100,0,l)
);
},
{
closed = 1;
nodes = (
(100,-100,l),
(100,-200,l),
(400,-200,l),
(400,-100,l)
);
},
{
closed = 1;
nodes = (
(400,600,l),
(400,700,l),
(300,700,l),
(300,600,l)
);
},
{
closed = 1;
nodes = (
(100,600,l),
(100,700,l),
(0,700,l),
(0,600,l)
);
}
);
width = 600;
}
);
unicode = 255;
},
{
glyphname = OE;
lastChange = "2024-07-09 21:43:44 +0000";
layers = (
{
layerId = m01;
shapes = (
{
closed = 1;
nodes = (
(100,100,l),
(100,600,l),
(0,600,l),
(0,100,l)
);
},
{
closed = 1;
nodes = (
(400,600,l),
(400,100,l),
(100,100,l),
(100,0,l),
(800,0,l),
(800,100,l),
(500,100,l),
(500,300,l),
(700,300,l),
(700,400,l),
(500,400,l),
(500,600,l),
(800,600,l),
(800,700,l),
(100,700,l),
(100,600,l)
);
}
);
width = 900;
}
);
unicode = 338;
},
{
glyphname = oe;
lastChange = "2024-07-09 21:43:44 +0000";
layers = (
{
layerId = m01;
shapes = (
{
closed = 1;
nodes = (
(0,100,l),
(100,100,l),
(100,400,l),
(0,400,l)
);
},
{
closed = 1;
nodes = (
(600,0,l),
(600,100,l),
(400,100,l),
(400,200,l),
(700,200,l),
(700,400,l),
(600,400,l),
(600,300,l),
(400,300,l),
(400,400,l),
(300,400,l),
(300,100,l),
(100,100,l),
(100,0,l)
);
},
{
closed = 1;
nodes = (
(300,400,l),
(300,500,l),
(100,500,l),
(100,400,l)
);
},
{
closed = 1;
nodes = (
(600,400,l),
(600,500,l),
(400,500,l),
(400,400,l)
);
}
);
width = 800;
}
);
unicode = 339;
},
{
glyphname = florin;
lastChange = "2024-07-09 21:52:01 +0000";
layers = (
{
layerId = m01;
shapes = (
{
closed = 1;
nodes = (
(200,500,l),
(100,500,l),
(100,400,l),
(200,400,l),
(200,-100,l),
(300,-100,l),
(300,400,l),
(400,400,l),
(400,500,l),
(300,500,l),
(300,800,l),
(200,800,l)
);
},
{
closed = 1;
nodes = (
(100,-100,l),
(100,-200,l),
(200,-200,l),
(200,-100,l)
);
},
{
closed = 1;
nodes = (
(400,800,l),
(400,900,l),
(300,900,l),
(300,800,l)
);
}
);
width = 500;
}
);
unicode = 402;
},
{
glyphname = Omega;
lastChange = "2024-07-09 21:43:44 +0000";
layers = (
{
layerId = m01;
shapes = (
{
closed = 1;
nodes = (
(300,0,l),
(300,200,l),
(200,200,l),
(200,100,l),
(100,100,l),
(100,0,l)
);
},
{
closed = 1;
nodes = (
(200,200,l),
(200,300,l),
(100,300,l),
(100,200,l)
);
},
{
closed = 1;
nodes = (
(100,300,l),
(100,600,l),
(0,600,l),
(0,300,l)
);
},
{
closed = 1;
nodes = (
(200,600,l),
(200,700,l),
(100,700,l),
(100,600,l)
);
},
{
closed = 1;
nodes = (
(500,700,l),
(500,800,l),
(200,800,l),
(200,700,l)
);
},
{
closed = 1;
nodes = (
(600,600,l),
(600,700,l),
(500,700,l),
(500,600,l)
);
},
{
closed = 1;
nodes = (
(600,300,l),
(700,300,l),
(700,600,l),
(600,600,l)
);
},
{
closed = 1;
nodes = (
(500,300,l),
(500,200,l),
(600,200,l),
(600,300,l)
);
},
{
closed = 1;
nodes = (
(400,200,l),
(400,0,l),
(600,0,l),
(600,100,l),
(500,100,l),
(500,200,l)
);
}
);
width = 800;
}
);
unicode = 937;
},
{
glyphname = pi;
lastChange = "2024-07-09 21:43:44 +0000";
layers = (
{
layerId = m01;
shapes = (
{
closed = 1;
nodes = (
(200,0,l),
(200,100,l),
(100,100,l),
(100,0,l)
);
},
{
closed = 1;
nodes = (
(300,100,l),
(300,500,l),
(500,500,l),
(500,100,l),
(600,100,l),
(600,600,l),
(100,600,l),
(100,500,l),
(200,500,l),
(200,100,l)
);
},
{
closed = 1;
nodes = (
(0,500,l),
(0,400,l),
(100,400,l),
(100,500,l)
);
},
{
closed = 1;
nodes = (
(400,100,l),
(400,0,l),
(500,0,l),
(500,100,l)
);
},
{
closed = 1;
nodes = (
(700,600,l),
(700,700,l),
(600,700,l),
(600,600,l)
);
}
);
width = 800;
}
);
unicode = 960;
},
{
glyphname = emdash;
lastChange = "2024-07-09 21:43:44 +0000";
layers = (
{
layerId = m01;
shapes = (
{
closed = 1;
nodes = (
(600,200,l),
(600,300,l),
(0,300,l),
(0,200,l)
);
}
);
width = 700;
}
);
unicode = 8212;
},
{
glyphname = quoteleft;
lastChange = "2024-07-09 21:52:56 +0000";
layers = (
{
layerId = m01;
shapes = (
{
closed = 1;
nodes = (
(200,500,l),
(200,700,l),
(100,700,l),
(100,500,l)
);
},
{
closed = 1;
nodes = (
(300,700,l),
(300,800,l),
(200,800,l),
(200,700,l)
);
}
);
width = 400;
}
);
unicode = 8216;
},
{
glyphname = quoteright;
lastChange = "2024-07-09 21:53:00 +0000";
layers = (
{
layerId = m01;
shapes = (
{
closed = 1;
nodes = (
(200,600,l),
(300,600,l),
(300,800,l),
(200,800,l)
);
},
{
closed = 1;
nodes = (
(100,600,l),
(100,500,l),
(200,500,l),
(200,600,l)
);
}
);
width = 400;
}
);
unicode = 8217;
},
{
glyphname = quotedblleft;
lastChange = "2024-07-09 21:52:51 +0000";
layers = (
{
layerId = m01;
shapes = (
{
closed = 1;
nodes = (
(200,500,l),
(200,700,l),
(100,700,l),
(100,500,l)
);
},
{
closed = 1;
nodes = (
(300,700,l),
(300,800,l),
(200,800,l),
(200,700,l)
);
},
{
closed = 1;
nodes = (
(300,700,l),
(300,500,l),
(400,500,l),
(400,700,l)
);
},
{
closed = 1;
nodes = (
(500,700,l),
(500,800,l),
(400,800,l),
(400,700,l)
);
}
);
width = 700;
}
);
unicode = 8220;
},
{
glyphname = quotedblright;
lastChange = "2024-07-09 21:52:53 +0000";
layers = (
{
layerId = m01;
shapes = (
{
closed = 1;
nodes = (
(200,600,l),
(200,500,l),
(300,500,l),
(300,600,l)
);
},
{
closed = 1;
nodes = (
(400,600,l),
(400,800,l),
(300,800,l),
(300,600,l)
);
},
{
closed = 1;
nodes = (
(500,600,l),
(600,600,l),
(600,800,l),
(500,800,l)
);
},
{
closed = 1;
nodes = (
(400,600,l),
(400,500,l),
(500,500,l),
(500,600,l)
);
}
);
width = 700;
}
);
unicode = 8221;
},
{
glyphname = dagger;
lastChange = "2024-07-09 21:43:44 +0000";
layers = (
{
layerId = m01;
shapes = (
{
closed = 1;
nodes = (
(100,600,l),
(100,300,l),
(200,300,l),
(200,600,l),
(300,600,l),
(300,700,l),
(200,700,l),
(200,800,l),
(100,800,l),
(100,700,l),
(0,700,l),
(0,600,l)
);
}
);
width = 400;
}
);
unicode = 8224;
},
{
glyphname = bullet;
lastChange = "2024-07-09 21:43:44 +0000";
layers = (
{
layerId = m01;
shapes = (
{
closed = 1;
nodes = (
(400,100,l),
(400,200,l),
(500,200,l),
(500,500,l),
(400,500,l),
(400,600,l),
(100,600,l),
(100,500,l),
(0,500,l),
(0,200,l),
(100,200,l),
(100,100,l)
);
}
);
width = 600;
}
);
unicode = 8226;
},
{
glyphname = ellipsis;
lastChange = "2024-07-09 21:43:44 +0000";
layers = (
{
layerId = m01;
shapes = (
{
closed = 1;
nodes = (
(400,0,l),
(400,100,l),
(300,100,l),
(300,0,l)
);
},
{
closed = 1;
nodes = (
(700,0,l),
(700,100,l),
(600,100,l),
(600,0,l)
);
},
{
closed = 1;
nodes = (
(100,0,l),
(100,100,l),
(0,100,l),
(0,0,l)
);
}
);
width = 800;
}
);
unicode = 8230;
},
{
glyphname = trademark;
lastChange = "2024-07-09 21:43:44 +0000";
layers = (
{
layerId = m01;
shapes = (
{
closed = 1;
nodes = (
(100,600,l),
(100,300,l),
(200,300,l),
(200,600,l),
(300,600,l),
(300,300,l),
(400,300,l),
(400,500,l),
(500,500,l),
(500,600,l),
(400,600,l),
(400,700,l),
(0,700,l),
(0,600,l)
);
},
{
closed = 1;
nodes = (
(600,400,l),
(600,500,l),
(500,500,l),
(500,400,l)
);
},
{
closed = 1;
nodes = (
(700,500,l),
(700,300,l),
(800,300,l),
(800,700,l),
(700,700,l),
(700,600,l),
(600,600,l),
(600,500,l)
);
}
);
width = 900;
}
);
unicode = 8482;
},
{
glyphname = partialdiff;
lastChange = "2024-07-09 21:43:38 +0000";
layers = (
{
layerId = m01;
shapes = (
{
closed = 1;
nodes = (
(300,0,l),
(300,100,l),
(100,100,l),
(100,0,l)
);
},
{
closed = 1;
nodes = (
(100,100,l),
(100,400,l),
(0,400,l),
(0,100,l)
);
},
{
closed = 1;
nodes = (
(200,400,l),
(200,500,l),
(100,500,l),
(100,400,l)
);
},
{
closed = 1;
nodes = (
(300,500,l),
(300,600,l),
(200,600,l),
(200,500,l)
);
},
{
closed = 1;
nodes = (
(200,600,l),
(200,700,l),
(0,700,l),
(0,600,l)
);
},
{
closed = 1;
nodes = (
(300,100,l),
(400,100,l),
(400,500,l),
(300,500,l)
);
}
);
width = 500;
}
);
unicode = 8706;
},
{
glyphname = increment;
lastChange = "2024-07-09 21:52:05 +0000";
layers = (
{
layerId = m01;
shapes = (
{
closed = 1;
nodes = (
(100,0,l),
(600,0,l),
(600,200,l),
(500,200,l),
(500,100,l),
(200,100,l),
(200,200,l),
(100,200,l)
);
},
{
closed = 1;
nodes = (
(400,200,l),
(500,200,l),
(500,400,l),
(400,400,l)
);
},
{
closed = 1;
nodes = (
(300,200,l),
(300,400,l),
(200,400,l),
(200,200,l)
);
},
{
closed = 1;
nodes = (
(400,400,l),
(400,600,l),
(300,600,l),
(300,400,l)
);
}
);
width = 700;
}
);
unicode = 8710;
},
{
glyphname = product;
lastChange = "2024-07-09 21:43:44 +0000";
layers = (
{
layerId = m01;
shapes = (
{
closed = 1;
nodes = (
(200,0,l),
(200,600,l),
(400,600,l),
(400,0,l),
(500,0,l),
(500,600,l),
(600,600,l),
(600,700,l),
(0,700,l),
(0,600,l),
(100,600,l),
(100,0,l)
);
}
);
width = 700;
}
);
unicode = 8719;
},
{
glyphname = summation;
lastChange = "2024-07-09 21:43:44 +0000";
layers = (
{
layerId = m01;
shapes = (
{
closed = 1;
nodes = (
(200,100,l),
(200,200,l),
(100,200,l),
(100,100,l),
(0,100,l),
(0,0,l),
(500,0,l),
(500,200,l),
(400,200,l),
(400,100,l)
);
},
{
closed = 1;
nodes = (
(300,200,l),
(300,300,l),
(200,300,l),
(200,200,l)
);
},
{
closed = 1;
nodes = (
(400,300,l),
(400,400,l),
(300,400,l),
(300,300,l)
);
},
{
closed = 1;
nodes = (
(300,400,l),
(300,500,l),
(200,500,l),
(200,400,l)
);
},
{
closed = 1;
nodes = (
(200,500,l),
(200,600,l),
(400,600,l),
(400,500,l),
(500,500,l),
(500,700,l),
(0,700,l),
(0,600,l),
(100,600,l),
(100,500,l)
);
}
);
width = 600;
}
);
unicode = 8721;
},
{
glyphname = minus;
lastChange = "2024-07-09 21:43:44 +0000";
layers = (
{
layerId = m01;
shapes = (
{
closed = 1;
nodes = (
(400,300,l),
(400,400,l),
(0,400,l),
(0,300,l)
);
}
);
width = 500;
}
);
unicode = 8722;
},
{
glyphname = radical;
lastChange = "2024-07-09 21:43:44 +0000";
layers = (
{
layerId = m01;
shapes = (
{
closed = 1;
nodes = (
(100,300,l),
(100,200,l),
(200,200,l),
(200,400,l),
(0,400,l),
(0,300,l)
);
},
{
closed = 1;
nodes = (
(300,0,l),
(300,200,l),
(200,200,l),
(200,0,l)
);
},
{
closed = 1;
nodes = (
(400,200,l),
(400,400,l),
(300,400,l),
(300,200,l)
);
},
{
closed = 1;
nodes = (
(500,400,l),
(500,600,l),
(400,600,l),
(400,400,l)
);
},
{
closed = 1;
nodes = (
(600,600,l),
(600,700,l),
(700,700,l),
(700,800,l),
(500,800,l),
(500,600,l)
);
}
);
width = 800;
}
);
unicode = 8730;
},
{
glyphname = infinity;
lastChange = "2024-07-09 21:43:44 +0000";
layers = (
{
layerId = m01;
shapes = (
{
closed = 1;
nodes = (
(100,200,l),
(100,500,l),
(0,500,l),
(0,200,l)
);
},
{
closed = 1;
nodes = (
(300,500,l),
(300,600,l),
(100,600,l),
(100,500,l)
);
},
{
closed = 1;
nodes = (
(300,100,l),
(300,200,l),
(100,200,l),
(100,100,l)
);
},
{
closed = 1;
nodes = (
(400,200,l),
(400,300,l),
(300,300,l),
(300,200,l)
);
},
{
closed = 1;
nodes = (
(500,300,l),
(500,400,l),
(400,400,l),
(400,300,l)
);
},
{
closed = 1;
nodes = (
(400,400,l),
(400,500,l),
(300,500,l),
(300,400,l)
);
},
{
closed = 1;
nodes = (
(600,400,l),
(600,500,l),
(500,500,l),
(500,400,l)
);
},
{
closed = 1;
nodes = (
(600,200,l),
(600,300,l),
(500,300,l),
(500,200,l)
);
},
{
closed = 1;
nodes = (
(800,100,l),
(800,200,l),
(600,200,l),
(600,100,l)
);
},
{
closed = 1;
nodes = (
(900,200,l),
(900,500,l),
(800,500,l),
(800,200,l)
);
},
{
closed = 1;
nodes = (
(800,500,l),
(800,600,l),
(600,600,l),
(600,500,l)
);
}
);
width = 1000;
}
);
unicode = 8734;
},
{
glyphname = integral;
lastChange = "2024-07-09 21:51:38 +0000";
layers = (
{
layerId = m01;
shapes = (
{
closed = 1;
nodes = (
(200,-200,l),
(200,-100,l),
(100,-100,l),
(100,-200,l)
);
},
{
closed = 1;
nodes = (
(300,-100,l),
(300,800,l),
(200,800,l),
(200,-100,l)
);
},
{
closed = 1;
nodes = (
(400,800,l),
(400,900,l),
(300,900,l),
(300,800,l)
);
}
);
width = 500;
}
);
unicode = 8747;
},
{
glyphname = approxequal;
lastChange = "2024-07-09 21:43:44 +0000";
layers = (
{
layerId = m01;
shapes = (
{
closed = 1;
nodes = (
(100,300,l),
(100,400,l),
(0,400,l),
(0,300,l)
);
},
{
closed = 1;
nodes = (
(400,400,l),
(400,500,l),
(100,500,l),
(100,400,l)
);
},
{
closed = 1;
nodes = (
(500,500,l),
(500,600,l),
(400,600,l),
(400,500,l)
);
},
{
closed = 1;
nodes = (
(100,300,l),
(100,200,l),
(400,200,l),
(400,300,l)
);
},
{
closed = 1;
nodes = (
(500,300,l),
(500,400,l),
(400,400,l),
(400,300,l)
);
},
{
closed = 1;
nodes = (
(100,100,l),
(100,200,l),
(0,200,l),
(0,100,l)
);
}
);
width = 600;
}
);
unicode = 8776;
},
{
glyphname = notequal;
lastChange = "2024-07-09 21:43:44 +0000";
layers = (
{
layerId = m01;
shapes = (
{
closed = 1;
nodes = (
(200,400,l),
(200,300,l),
(0,300,l),
(0,200,l),
(100,200,l),
(100,100,l),
(200,100,l),
(200,200,l),
(500,200,l),
(500,300,l),
(300,300,l),
(300,400,l),
(500,400,l),
(500,500,l),
(400,500,l),
(400,600,l),
(300,600,l),
(300,500,l),
(0,500,l),
(0,400,l)
);
}
);
width = 600;
}
);
unicode = 8800;
},
{
glyphname = lessequal;
lastChange = "2024-07-09 21:43:38 +0000";
layers = (
{
layerId = m01;
shapes = (
{
closed = 1;
nodes = (
(400,0,l),
(400,100,l),
(300,100,l),
(300,200,l),
(200,200,l),
(200,100,l),
(0,100,l),
(0,0,l)
);
},
{
closed = 1;
nodes = (
(200,200,l),
(200,300,l),
(100,300,l),
(100,200,l)
);
},
{
closed = 1;
nodes = (
(100,300,l),
(100,400,l),
(0,400,l),
(0,300,l)
);
},
{
closed = 1;
nodes = (
(200,400,l),
(200,500,l),
(100,500,l),
(100,400,l)
);
},
{
closed = 1;
nodes = (
(300,500,l),
(300,600,l),
(200,600,l),
(200,500,l)
);
}
);
width = 500;
}
);
unicode = 8804;
},
{
glyphname = greaterequal;
lastChange = "2024-07-09 21:43:38 +0000";
layers = (
{
layerId = m01;
shapes = (
{
closed = 1;
nodes = (
(200,500,l),
(200,600,l),
(100,600,l),
(100,500,l)
);
},
{
closed = 1;
nodes = (
(300,400,l),
(300,500,l),
(200,500,l),
(200,400,l)
);
},
{
closed = 1;
nodes = (
(200,300,l),
(200,200,l),
(300,200,l),
(300,300,l)
);
},
{
closed = 1;
nodes = (
(400,300,l),
(400,400,l),
(300,400,l),
(300,300,l)
);
},
{
closed = 1;
nodes = (
(100,200,l),
(100,100,l),
(0,100,l),
(0,0,l),
(400,0,l),
(400,100,l),
(200,100,l),
(200,200,l)
);
}
);
width = 500;
}
);
unicode = 8805;
},
{
glyphname = lozenge;
lastChange = "2024-07-09 21:43:44 +0000";
layers = (
{
layerId = m01;
shapes = (
{
closed = 1;
nodes = (
(100,300,l),
(100,400,l),
(0,400,l),
(0,300,l)
);
},
{
closed = 1;
nodes = (
(200,400,l),
(200,500,l),
(100,500,l),
(100,400,l)
);
},
{
closed = 1;
nodes = (
(300,500,l),
(300,600,l),
(200,600,l),
(200,500,l)
);
},
{
closed = 1;
nodes = (
(200,200,l),
(200,300,l),
(100,300,l),
(100,200,l)
);
},
{
closed = 1;
nodes = (
(300,100,l),
(300,200,l),
(200,200,l),
(200,100,l)
);
},
{
closed = 1;
nodes = (
(400,0,l),
(400,100,l),
(300,100,l),
(300,0,l)
);
},
{
closed = 1;
nodes = (
(400,200,l),
(400,100,l),
(500,100,l),
(500,200,l)
);
},
{
closed = 1;
nodes = (
(600,200,l),
(600,300,l),
(500,300,l),
(500,200,l)
);
},
{
closed = 1;
nodes = (
(700,300,l),
(700,400,l),
(600,400,l),
(600,300,l)
);
},
{
closed = 1;
nodes = (
(600,400,l),
(600,500,l),
(500,500,l),
(500,400,l)
);
},
{
closed = 1;
nodes = (
(500,500,l),
(500,600,l),
(400,600,l),
(400,500,l)
);
},
{
closed = 1;
nodes = (
(400,600,l),
(400,700,l),
(300,700,l),
(300,600,l)
);
}
